G04 EAGLE Gerber RS-274X export*
G75*
%MOMM*%
%FSLAX34Y34*%
%LPD*%
%INBottom Copper*%
%IPPOS*%
%AMOC8*
5,1,8,0,0,1.08239X$1,22.5*%
G01*
%ADD10C,1.651000*%
%ADD11C,1.879600*%
%ADD12R,2.032000X2.032000*%
%ADD13C,2.032000*%
%ADD14C,2.540000*%
%ADD15P,2.749271X8X247.500000*%
%ADD16R,1.879600X1.879600*%
%ADD17R,1.500000X1.500000*%
%ADD18C,1.500000*%
%ADD19C,0.604000*%
%ADD20C,0.406400*%
%ADD21C,1.270000*%
%ADD22C,0.812800*%
%ADD23C,1.016000*%

G36*
X445116Y4067D02*
X445116Y4067D01*
X445143Y4066D01*
X450201Y4350D01*
X450232Y4357D01*
X450327Y4368D01*
X460189Y6619D01*
X460191Y6619D01*
X460192Y6619D01*
X460350Y6675D01*
X469464Y11064D01*
X469465Y11065D01*
X469467Y11065D01*
X469609Y11155D01*
X477517Y17462D01*
X477518Y17463D01*
X477520Y17464D01*
X477638Y17583D01*
X483945Y25491D01*
X483946Y25493D01*
X483947Y25493D01*
X484036Y25636D01*
X488425Y34750D01*
X488425Y34751D01*
X488426Y34752D01*
X488481Y34911D01*
X490732Y44773D01*
X490734Y44805D01*
X490750Y44899D01*
X491034Y49957D01*
X491032Y49974D01*
X491035Y50000D01*
X491035Y609600D01*
X491032Y609620D01*
X491034Y609639D01*
X491012Y609741D01*
X490996Y609843D01*
X490986Y609860D01*
X490982Y609880D01*
X490929Y609969D01*
X490880Y610060D01*
X490866Y610074D01*
X490856Y610091D01*
X490777Y610158D01*
X490702Y610230D01*
X490684Y610238D01*
X490669Y610251D01*
X490573Y610290D01*
X490479Y610333D01*
X490459Y610335D01*
X490441Y610343D01*
X490274Y610361D01*
X182962Y610361D01*
X182942Y610358D01*
X182923Y610360D01*
X182821Y610338D01*
X182719Y610322D01*
X182702Y610312D01*
X182682Y610308D01*
X182593Y610255D01*
X182502Y610206D01*
X182488Y610192D01*
X182471Y610182D01*
X182404Y610103D01*
X182333Y610028D01*
X182324Y610010D01*
X182311Y609995D01*
X182273Y609899D01*
X182229Y609805D01*
X182227Y609785D01*
X182219Y609767D01*
X182201Y609600D01*
X182201Y609599D01*
X182199Y609599D01*
X182199Y609600D01*
X182196Y609620D01*
X182198Y609639D01*
X182176Y609741D01*
X182159Y609843D01*
X182150Y609860D01*
X182146Y609880D01*
X182093Y609969D01*
X182044Y610060D01*
X182030Y610074D01*
X182020Y610091D01*
X181941Y610158D01*
X181866Y610230D01*
X181848Y610238D01*
X181833Y610251D01*
X181737Y610290D01*
X181643Y610333D01*
X181623Y610335D01*
X181605Y610343D01*
X181438Y610361D01*
X4826Y610361D01*
X4806Y610358D01*
X4787Y610360D01*
X4685Y610338D01*
X4583Y610322D01*
X4566Y610312D01*
X4546Y610308D01*
X4457Y610255D01*
X4366Y610206D01*
X4352Y610192D01*
X4335Y610182D01*
X4268Y610103D01*
X4196Y610028D01*
X4188Y610010D01*
X4175Y609995D01*
X4136Y609899D01*
X4093Y609805D01*
X4091Y609785D01*
X4083Y609767D01*
X4065Y609600D01*
X4065Y50000D01*
X4067Y49984D01*
X4066Y49957D01*
X4350Y44899D01*
X4357Y44868D01*
X4368Y44773D01*
X6619Y34911D01*
X6619Y34909D01*
X6619Y34908D01*
X6675Y34750D01*
X11064Y25636D01*
X11065Y25635D01*
X11065Y25633D01*
X11155Y25491D01*
X17462Y17583D01*
X17463Y17582D01*
X17464Y17580D01*
X17583Y17462D01*
X25491Y11155D01*
X25493Y11154D01*
X25493Y11153D01*
X25636Y11064D01*
X34750Y6675D01*
X34751Y6675D01*
X34752Y6674D01*
X34911Y6619D01*
X36014Y6367D01*
X39349Y5606D01*
X42685Y4844D01*
X44773Y4368D01*
X44805Y4366D01*
X44899Y4350D01*
X49957Y4066D01*
X49974Y4068D01*
X50000Y4065D01*
X445100Y4065D01*
X445116Y4067D01*
G37*
G36*
X167862Y634242D02*
X167862Y634242D01*
X167881Y634240D01*
X167983Y634262D01*
X168085Y634279D01*
X168102Y634288D01*
X168122Y634292D01*
X168211Y634345D01*
X168302Y634394D01*
X168316Y634408D01*
X168333Y634418D01*
X168400Y634497D01*
X168472Y634572D01*
X168480Y634590D01*
X168493Y634605D01*
X168532Y634701D01*
X168575Y634795D01*
X168577Y634815D01*
X168585Y634833D01*
X168603Y635000D01*
X168603Y637705D01*
X170673Y642702D01*
X174498Y646527D01*
X179495Y648597D01*
X184905Y648597D01*
X189902Y646527D01*
X193727Y642702D01*
X195797Y637705D01*
X195797Y635000D01*
X195800Y634980D01*
X195798Y634961D01*
X195820Y634859D01*
X195836Y634757D01*
X195846Y634740D01*
X195850Y634720D01*
X195903Y634631D01*
X195952Y634540D01*
X195966Y634526D01*
X195976Y634509D01*
X196055Y634442D01*
X196130Y634371D01*
X196148Y634362D01*
X196163Y634349D01*
X196259Y634310D01*
X196353Y634267D01*
X196373Y634265D01*
X196391Y634257D01*
X196558Y634239D01*
X488242Y634239D01*
X488262Y634242D01*
X488281Y634240D01*
X488383Y634262D01*
X488485Y634279D01*
X488502Y634288D01*
X488522Y634292D01*
X488611Y634345D01*
X488702Y634394D01*
X488716Y634408D01*
X488733Y634418D01*
X488800Y634497D01*
X488872Y634572D01*
X488880Y634590D01*
X488893Y634605D01*
X488932Y634701D01*
X488975Y634795D01*
X488977Y634815D01*
X488985Y634833D01*
X489003Y635000D01*
X489003Y707723D01*
X488988Y707819D01*
X488978Y707916D01*
X488968Y707939D01*
X488964Y707965D01*
X488918Y708051D01*
X488878Y708140D01*
X488861Y708160D01*
X488848Y708183D01*
X488778Y708250D01*
X488712Y708321D01*
X488689Y708334D01*
X488670Y708352D01*
X488582Y708393D01*
X488496Y708440D01*
X488471Y708445D01*
X488447Y708456D01*
X488350Y708466D01*
X488254Y708484D01*
X488228Y708480D01*
X488203Y708483D01*
X488107Y708462D01*
X488011Y708448D01*
X487988Y708436D01*
X487962Y708430D01*
X487879Y708381D01*
X487792Y708336D01*
X487773Y708318D01*
X487751Y708304D01*
X487688Y708230D01*
X487620Y708161D01*
X487604Y708132D01*
X487591Y708117D01*
X487579Y708087D01*
X487539Y708014D01*
X486951Y706595D01*
X484665Y704309D01*
X481677Y703071D01*
X453043Y703071D01*
X450055Y704309D01*
X447769Y706595D01*
X446531Y709583D01*
X446531Y765810D01*
X446528Y765830D01*
X446530Y765849D01*
X446508Y765951D01*
X446492Y766053D01*
X446482Y766070D01*
X446478Y766090D01*
X446425Y766179D01*
X446376Y766270D01*
X446362Y766284D01*
X446352Y766301D01*
X446273Y766368D01*
X446198Y766440D01*
X446180Y766448D01*
X446165Y766461D01*
X446069Y766500D01*
X445975Y766543D01*
X445955Y766545D01*
X445937Y766553D01*
X445770Y766571D01*
X353144Y766571D01*
X353029Y766552D01*
X352913Y766535D01*
X352907Y766533D01*
X352901Y766532D01*
X352798Y766477D01*
X352694Y766424D01*
X352689Y766419D01*
X352684Y766416D01*
X352604Y766332D01*
X352521Y766248D01*
X352518Y766242D01*
X352514Y766238D01*
X352506Y766221D01*
X352440Y766101D01*
X351514Y763864D01*
X348656Y761006D01*
X344921Y759459D01*
X340879Y759459D01*
X337144Y761006D01*
X334286Y763864D01*
X333360Y766101D01*
X333298Y766201D01*
X333238Y766301D01*
X333233Y766305D01*
X333230Y766310D01*
X333139Y766385D01*
X333051Y766461D01*
X333045Y766463D01*
X333041Y766467D01*
X332932Y766509D01*
X332823Y766553D01*
X332815Y766554D01*
X332811Y766555D01*
X332793Y766556D01*
X332656Y766571D01*
X252383Y766571D01*
X249395Y767809D01*
X247109Y770095D01*
X245871Y773083D01*
X245871Y804672D01*
X245868Y804692D01*
X245870Y804711D01*
X245848Y804813D01*
X245832Y804915D01*
X245822Y804932D01*
X245818Y804952D01*
X245765Y805041D01*
X245716Y805132D01*
X245702Y805146D01*
X245692Y805163D01*
X245613Y805230D01*
X245538Y805302D01*
X245520Y805310D01*
X245505Y805323D01*
X245409Y805362D01*
X245315Y805405D01*
X245295Y805407D01*
X245277Y805415D01*
X245110Y805433D01*
X165417Y805433D01*
X161309Y807135D01*
X158165Y810279D01*
X156463Y814387D01*
X156463Y818833D01*
X158165Y822941D01*
X161309Y826085D01*
X165417Y827787D01*
X245110Y827787D01*
X245130Y827790D01*
X245149Y827788D01*
X245251Y827810D01*
X245353Y827826D01*
X245370Y827836D01*
X245390Y827840D01*
X245479Y827893D01*
X245570Y827942D01*
X245584Y827956D01*
X245601Y827966D01*
X245668Y828045D01*
X245740Y828120D01*
X245748Y828138D01*
X245761Y828153D01*
X245800Y828249D01*
X245843Y828343D01*
X245845Y828363D01*
X245853Y828381D01*
X245871Y828548D01*
X245871Y892810D01*
X245868Y892830D01*
X245870Y892849D01*
X245848Y892951D01*
X245832Y893053D01*
X245822Y893070D01*
X245818Y893090D01*
X245765Y893179D01*
X245716Y893270D01*
X245702Y893284D01*
X245692Y893301D01*
X245613Y893368D01*
X245538Y893440D01*
X245520Y893448D01*
X245505Y893461D01*
X245409Y893500D01*
X245315Y893543D01*
X245295Y893545D01*
X245277Y893553D01*
X245110Y893571D01*
X138083Y893571D01*
X135095Y894809D01*
X132809Y897095D01*
X131571Y900083D01*
X131571Y992217D01*
X131834Y992851D01*
X131844Y992895D01*
X131864Y992937D01*
X131872Y993014D01*
X131890Y993090D01*
X131886Y993136D01*
X131891Y993181D01*
X131874Y993258D01*
X131867Y993335D01*
X131848Y993377D01*
X131838Y993422D01*
X131799Y993489D01*
X131767Y993560D01*
X131736Y993594D01*
X131712Y993633D01*
X131653Y993684D01*
X131600Y993741D01*
X131560Y993763D01*
X131525Y993793D01*
X131453Y993822D01*
X131385Y993859D01*
X131340Y993868D01*
X131297Y993885D01*
X131161Y993900D01*
X131143Y993903D01*
X131138Y993902D01*
X131131Y993903D01*
X50000Y993903D01*
X49984Y993901D01*
X49957Y993902D01*
X45127Y993631D01*
X45095Y993624D01*
X45000Y993613D01*
X35582Y991463D01*
X35580Y991463D01*
X35579Y991463D01*
X35421Y991407D01*
X33006Y990244D01*
X32943Y990200D01*
X32876Y990164D01*
X32843Y990130D01*
X32804Y990103D01*
X32759Y990041D01*
X32706Y989986D01*
X32686Y989943D01*
X32658Y989905D01*
X32635Y989832D01*
X32603Y989763D01*
X32598Y989716D01*
X32583Y989671D01*
X32584Y989594D01*
X32576Y989519D01*
X32586Y989472D01*
X32587Y989425D01*
X32612Y989353D01*
X32628Y989278D01*
X32652Y989237D01*
X32668Y989193D01*
X32715Y989132D01*
X32754Y989067D01*
X32790Y989036D01*
X32820Y988999D01*
X32883Y988957D01*
X32941Y988907D01*
X32985Y988889D01*
X33025Y988863D01*
X33098Y988844D01*
X33169Y988815D01*
X33233Y988808D01*
X33263Y988800D01*
X33289Y988802D01*
X33336Y988797D01*
X42794Y988797D01*
X51467Y985204D01*
X58104Y978567D01*
X61697Y969894D01*
X61697Y960506D01*
X58104Y951833D01*
X51467Y945196D01*
X42794Y941603D01*
X33406Y941603D01*
X24733Y945196D01*
X18096Y951833D01*
X14503Y960506D01*
X14503Y969894D01*
X17245Y976513D01*
X17249Y976529D01*
X17257Y976544D01*
X17262Y976572D01*
X17274Y976596D01*
X17282Y976670D01*
X17301Y976752D01*
X17299Y976769D01*
X17303Y976785D01*
X17298Y976817D01*
X17301Y976841D01*
X17287Y976906D01*
X17278Y976997D01*
X17271Y977012D01*
X17269Y977029D01*
X17253Y977061D01*
X17249Y977081D01*
X17217Y977133D01*
X17178Y977222D01*
X17167Y977234D01*
X17159Y977249D01*
X17132Y977276D01*
X17122Y977292D01*
X17079Y977329D01*
X17012Y977403D01*
X16997Y977411D01*
X16985Y977423D01*
X16949Y977440D01*
X16935Y977452D01*
X16885Y977473D01*
X16796Y977521D01*
X16779Y977524D01*
X16764Y977532D01*
X16724Y977537D01*
X16707Y977544D01*
X16611Y977555D01*
X16554Y977565D01*
X16537Y977563D01*
X16521Y977565D01*
X16416Y977545D01*
X16311Y977529D01*
X16299Y977523D01*
X16297Y977523D01*
X16294Y977521D01*
X16279Y977518D01*
X16186Y977466D01*
X16091Y977418D01*
X16084Y977410D01*
X16079Y977408D01*
X16075Y977403D01*
X16065Y977397D01*
X15946Y977278D01*
X12875Y973428D01*
X12875Y973426D01*
X12874Y973425D01*
X12785Y973283D01*
X8593Y964579D01*
X8593Y964578D01*
X8592Y964577D01*
X8537Y964418D01*
X6387Y955000D01*
X6385Y954968D01*
X6369Y954873D01*
X6098Y950043D01*
X6100Y950026D01*
X6097Y950000D01*
X6097Y635000D01*
X6100Y634980D01*
X6098Y634961D01*
X6120Y634859D01*
X6136Y634757D01*
X6146Y634740D01*
X6150Y634720D01*
X6203Y634631D01*
X6252Y634540D01*
X6266Y634526D01*
X6276Y634509D01*
X6355Y634442D01*
X6430Y634371D01*
X6448Y634362D01*
X6463Y634349D01*
X6559Y634310D01*
X6653Y634267D01*
X6673Y634265D01*
X6691Y634257D01*
X6858Y634239D01*
X167842Y634239D01*
X167862Y634242D01*
G37*
G36*
X480078Y709171D02*
X480078Y709171D01*
X480096Y709169D01*
X480278Y709190D01*
X480461Y709209D01*
X480478Y709214D01*
X480495Y709216D01*
X480670Y709273D01*
X480846Y709327D01*
X480861Y709335D01*
X480878Y709341D01*
X481038Y709431D01*
X481200Y709519D01*
X481213Y709530D01*
X481229Y709539D01*
X481368Y709659D01*
X481509Y709776D01*
X481520Y709790D01*
X481534Y709802D01*
X481646Y709947D01*
X481761Y710090D01*
X481769Y710106D01*
X481780Y710120D01*
X481862Y710285D01*
X481947Y710447D01*
X481952Y710464D01*
X481960Y710481D01*
X482007Y710659D01*
X482058Y710834D01*
X482060Y710852D01*
X482064Y710869D01*
X482091Y711200D01*
X482091Y772669D01*
X482600Y772669D01*
X482618Y772671D01*
X482636Y772669D01*
X482818Y772690D01*
X483001Y772709D01*
X483018Y772714D01*
X483035Y772716D01*
X483210Y772773D01*
X483386Y772827D01*
X483401Y772835D01*
X483418Y772841D01*
X483578Y772931D01*
X483740Y773019D01*
X483753Y773030D01*
X483769Y773039D01*
X483908Y773159D01*
X484049Y773276D01*
X484060Y773290D01*
X484074Y773302D01*
X484186Y773447D01*
X484301Y773590D01*
X484309Y773606D01*
X484320Y773620D01*
X484402Y773785D01*
X484487Y773947D01*
X484492Y773964D01*
X484500Y773981D01*
X484547Y774159D01*
X484598Y774334D01*
X484600Y774352D01*
X484604Y774369D01*
X484631Y774700D01*
X484631Y914400D01*
X484629Y914418D01*
X484631Y914436D01*
X484610Y914618D01*
X484591Y914801D01*
X484586Y914818D01*
X484584Y914835D01*
X484527Y915010D01*
X484473Y915186D01*
X484465Y915201D01*
X484459Y915218D01*
X484369Y915378D01*
X484281Y915540D01*
X484270Y915553D01*
X484261Y915569D01*
X484141Y915708D01*
X484024Y915849D01*
X484010Y915860D01*
X483998Y915874D01*
X483853Y915986D01*
X483710Y916101D01*
X483694Y916109D01*
X483680Y916120D01*
X483515Y916202D01*
X483353Y916287D01*
X483336Y916292D01*
X483320Y916300D01*
X483141Y916347D01*
X482966Y916398D01*
X482948Y916400D01*
X482931Y916404D01*
X482600Y916431D01*
X294131Y916431D01*
X294131Y990600D01*
X294129Y990618D01*
X294131Y990636D01*
X294110Y990818D01*
X294091Y991001D01*
X294086Y991018D01*
X294084Y991035D01*
X294027Y991210D01*
X293973Y991386D01*
X293965Y991401D01*
X293959Y991418D01*
X293869Y991578D01*
X293781Y991740D01*
X293770Y991753D01*
X293761Y991769D01*
X293641Y991908D01*
X293524Y992049D01*
X293510Y992060D01*
X293498Y992074D01*
X293353Y992186D01*
X293210Y992301D01*
X293194Y992309D01*
X293180Y992320D01*
X293015Y992402D01*
X292853Y992487D01*
X292836Y992492D01*
X292820Y992500D01*
X292641Y992547D01*
X292466Y992598D01*
X292448Y992600D01*
X292431Y992604D01*
X292100Y992631D01*
X139700Y992631D01*
X139682Y992629D01*
X139664Y992631D01*
X139482Y992610D01*
X139299Y992591D01*
X139282Y992586D01*
X139265Y992584D01*
X139090Y992527D01*
X138914Y992473D01*
X138899Y992465D01*
X138882Y992459D01*
X138722Y992369D01*
X138560Y992281D01*
X138547Y992270D01*
X138531Y992261D01*
X138392Y992141D01*
X138251Y992024D01*
X138240Y992010D01*
X138227Y991998D01*
X138114Y991853D01*
X137999Y991710D01*
X137991Y991694D01*
X137980Y991680D01*
X137898Y991515D01*
X137813Y991353D01*
X137808Y991336D01*
X137800Y991320D01*
X137753Y991141D01*
X137702Y990966D01*
X137700Y990948D01*
X137696Y990931D01*
X137669Y990600D01*
X137669Y901700D01*
X137671Y901682D01*
X137669Y901664D01*
X137690Y901482D01*
X137709Y901299D01*
X137714Y901282D01*
X137716Y901265D01*
X137773Y901090D01*
X137827Y900914D01*
X137835Y900899D01*
X137841Y900882D01*
X137931Y900722D01*
X138019Y900560D01*
X138030Y900547D01*
X138039Y900531D01*
X138159Y900392D01*
X138276Y900251D01*
X138290Y900240D01*
X138302Y900227D01*
X138447Y900114D01*
X138590Y899999D01*
X138606Y899991D01*
X138620Y899980D01*
X138785Y899898D01*
X138947Y899813D01*
X138964Y899808D01*
X138981Y899800D01*
X139159Y899753D01*
X139334Y899702D01*
X139352Y899700D01*
X139369Y899696D01*
X139700Y899669D01*
X251969Y899669D01*
X251969Y774700D01*
X251971Y774682D01*
X251969Y774664D01*
X251990Y774482D01*
X252009Y774299D01*
X252014Y774282D01*
X252016Y774265D01*
X252073Y774090D01*
X252127Y773914D01*
X252135Y773899D01*
X252141Y773882D01*
X252231Y773722D01*
X252319Y773560D01*
X252330Y773547D01*
X252339Y773531D01*
X252459Y773392D01*
X252576Y773251D01*
X252590Y773240D01*
X252602Y773227D01*
X252747Y773114D01*
X252890Y772999D01*
X252906Y772991D01*
X252920Y772980D01*
X253085Y772898D01*
X253247Y772813D01*
X253264Y772808D01*
X253281Y772800D01*
X253459Y772753D01*
X253634Y772702D01*
X253652Y772700D01*
X253669Y772696D01*
X254000Y772669D01*
X452629Y772669D01*
X452629Y711200D01*
X452631Y711182D01*
X452629Y711164D01*
X452650Y710982D01*
X452669Y710799D01*
X452674Y710782D01*
X452676Y710765D01*
X452733Y710590D01*
X452787Y710414D01*
X452795Y710399D01*
X452801Y710382D01*
X452891Y710222D01*
X452979Y710060D01*
X452990Y710047D01*
X452999Y710031D01*
X453119Y709892D01*
X453236Y709751D01*
X453250Y709740D01*
X453262Y709727D01*
X453407Y709614D01*
X453550Y709499D01*
X453566Y709491D01*
X453580Y709480D01*
X453745Y709398D01*
X453907Y709313D01*
X453924Y709308D01*
X453941Y709300D01*
X454119Y709253D01*
X454294Y709202D01*
X454312Y709200D01*
X454329Y709196D01*
X454660Y709169D01*
X480060Y709169D01*
X480078Y709171D01*
G37*
%LPC*%
G36*
X283071Y230405D02*
X283071Y230405D01*
X280825Y231335D01*
X280762Y231350D01*
X280701Y231375D01*
X280618Y231384D01*
X280586Y231391D01*
X280567Y231390D01*
X280534Y231393D01*
X205797Y231393D01*
X203556Y232321D01*
X185331Y250546D01*
X184403Y252787D01*
X184403Y398723D01*
X185290Y400863D01*
X185306Y400933D01*
X185332Y401000D01*
X185334Y401052D01*
X185346Y401103D01*
X185339Y401174D01*
X185342Y401246D01*
X185328Y401296D01*
X185323Y401347D01*
X185294Y401413D01*
X185274Y401482D01*
X185244Y401525D01*
X185223Y401572D01*
X185175Y401625D01*
X185134Y401684D01*
X185092Y401715D01*
X185057Y401753D01*
X184994Y401788D01*
X184936Y401831D01*
X184887Y401847D01*
X184841Y401872D01*
X184770Y401885D01*
X184702Y401907D01*
X184650Y401906D01*
X184599Y401916D01*
X184528Y401905D01*
X184456Y401904D01*
X184387Y401885D01*
X184356Y401880D01*
X184335Y401869D01*
X184295Y401858D01*
X184289Y401855D01*
X181471Y401855D01*
X178867Y402934D01*
X176874Y404927D01*
X175944Y407172D01*
X175909Y407228D01*
X175884Y407288D01*
X175832Y407353D01*
X175814Y407381D01*
X175799Y407394D01*
X175779Y407419D01*
X175434Y407764D01*
X175397Y407790D01*
X175366Y407824D01*
X175298Y407862D01*
X175235Y407907D01*
X175191Y407921D01*
X175151Y407943D01*
X175074Y407957D01*
X175000Y407979D01*
X174954Y407978D01*
X174909Y407986D01*
X174831Y407975D01*
X174754Y407973D01*
X174711Y407957D01*
X174665Y407951D01*
X174596Y407915D01*
X174523Y407889D01*
X174487Y407860D01*
X174446Y407839D01*
X174391Y407784D01*
X174331Y407735D01*
X174306Y407696D01*
X174274Y407664D01*
X174208Y407544D01*
X174198Y407528D01*
X174196Y407523D01*
X174193Y407517D01*
X173646Y406197D01*
X171653Y404204D01*
X169049Y403125D01*
X166231Y403125D01*
X163627Y404204D01*
X161634Y406197D01*
X160555Y408801D01*
X160555Y411619D01*
X161485Y413865D01*
X161500Y413928D01*
X161525Y413989D01*
X161534Y414072D01*
X161541Y414104D01*
X161540Y414123D01*
X161543Y414156D01*
X161543Y516833D01*
X162471Y519074D01*
X168159Y524761D01*
X168197Y524814D01*
X168243Y524861D01*
X168283Y524934D01*
X168302Y524961D01*
X168308Y524979D01*
X168324Y525008D01*
X169254Y527253D01*
X171247Y529246D01*
X173851Y530325D01*
X176669Y530325D01*
X179273Y529246D01*
X181266Y527253D01*
X182185Y525035D01*
X182209Y524996D01*
X182225Y524953D01*
X182273Y524893D01*
X182314Y524826D01*
X182350Y524797D01*
X182378Y524761D01*
X182444Y524719D01*
X182504Y524670D01*
X182547Y524653D01*
X182585Y524628D01*
X182661Y524609D01*
X182733Y524581D01*
X182779Y524579D01*
X182824Y524568D01*
X182901Y524574D01*
X182979Y524571D01*
X183023Y524584D01*
X183069Y524587D01*
X183141Y524618D01*
X183215Y524639D01*
X183253Y524666D01*
X183295Y524684D01*
X183402Y524769D01*
X183418Y524780D01*
X183421Y524784D01*
X183426Y524788D01*
X196654Y538016D01*
X198476Y539839D01*
X200717Y540767D01*
X253864Y540767D01*
X253929Y540777D01*
X253994Y540778D01*
X254074Y540801D01*
X254107Y540806D01*
X254124Y540816D01*
X254155Y540825D01*
X256401Y541755D01*
X259219Y541755D01*
X261823Y540676D01*
X263050Y539449D01*
X263067Y539437D01*
X263079Y539422D01*
X263166Y539366D01*
X263250Y539305D01*
X263269Y539300D01*
X263286Y539289D01*
X263386Y539263D01*
X263485Y539233D01*
X263505Y539234D01*
X263524Y539229D01*
X263627Y539237D01*
X263731Y539239D01*
X263750Y539246D01*
X263770Y539248D01*
X263864Y539288D01*
X263962Y539324D01*
X263978Y539336D01*
X263996Y539344D01*
X264127Y539449D01*
X272299Y547621D01*
X272337Y547674D01*
X272383Y547721D01*
X272423Y547794D01*
X272442Y547821D01*
X272448Y547839D01*
X272464Y547868D01*
X273394Y550113D01*
X275387Y552106D01*
X277991Y553185D01*
X280809Y553185D01*
X283413Y552106D01*
X285406Y550113D01*
X286485Y547509D01*
X286485Y544691D01*
X285406Y542087D01*
X283413Y540094D01*
X281168Y539164D01*
X281112Y539129D01*
X281052Y539104D01*
X281018Y539076D01*
X281003Y539069D01*
X280987Y539052D01*
X280959Y539034D01*
X280946Y539019D01*
X280921Y538999D01*
X273020Y531098D01*
X272967Y531024D01*
X272907Y530954D01*
X272895Y530924D01*
X272876Y530898D01*
X272849Y530811D01*
X272815Y530726D01*
X272811Y530685D01*
X272804Y530663D01*
X272805Y530631D01*
X272797Y530559D01*
X272797Y498141D01*
X272811Y498051D01*
X272819Y497960D01*
X272831Y497930D01*
X272836Y497898D01*
X272879Y497817D01*
X272915Y497733D01*
X272941Y497701D01*
X272952Y497681D01*
X272975Y497658D01*
X272999Y497628D01*
X273001Y497625D01*
X273003Y497623D01*
X273020Y497602D01*
X281702Y488920D01*
X281776Y488867D01*
X281846Y488807D01*
X281876Y488795D01*
X281902Y488776D01*
X281989Y488749D01*
X282074Y488715D01*
X282115Y488711D01*
X282137Y488704D01*
X282169Y488705D01*
X282241Y488697D01*
X335223Y488697D01*
X337464Y487769D01*
X350617Y474615D01*
X350633Y474604D01*
X350645Y474588D01*
X350733Y474532D01*
X350816Y474472D01*
X350835Y474466D01*
X350852Y474455D01*
X350953Y474430D01*
X351052Y474399D01*
X351071Y474400D01*
X351091Y474395D01*
X351194Y474403D01*
X351297Y474406D01*
X351316Y474413D01*
X351336Y474414D01*
X351431Y474455D01*
X351528Y474490D01*
X351544Y474503D01*
X351562Y474511D01*
X351693Y474615D01*
X361980Y484902D01*
X362033Y484976D01*
X362093Y485046D01*
X362105Y485076D01*
X362124Y485102D01*
X362151Y485189D01*
X362185Y485274D01*
X362189Y485315D01*
X362196Y485337D01*
X362195Y485369D01*
X362203Y485441D01*
X362203Y517859D01*
X362189Y517949D01*
X362181Y518040D01*
X362169Y518070D01*
X362164Y518102D01*
X362121Y518183D01*
X362085Y518267D01*
X362059Y518299D01*
X362048Y518319D01*
X362025Y518342D01*
X361980Y518398D01*
X350431Y529946D01*
X349503Y532187D01*
X349503Y542154D01*
X349493Y542219D01*
X349492Y542284D01*
X349469Y542364D01*
X349464Y542397D01*
X349454Y542414D01*
X349445Y542445D01*
X348515Y544691D01*
X348515Y547509D01*
X349594Y550113D01*
X351587Y552106D01*
X354191Y553185D01*
X357009Y553185D01*
X359613Y552106D01*
X361606Y550113D01*
X362685Y547509D01*
X362685Y544691D01*
X361755Y542445D01*
X361740Y542382D01*
X361715Y542321D01*
X361706Y542238D01*
X361699Y542206D01*
X361700Y542187D01*
X361697Y542154D01*
X361697Y536241D01*
X361711Y536151D01*
X361719Y536060D01*
X361731Y536030D01*
X361736Y535998D01*
X361779Y535917D01*
X361815Y535833D01*
X361841Y535801D01*
X361852Y535781D01*
X361875Y535758D01*
X361920Y535702D01*
X373469Y524154D01*
X374397Y521913D01*
X374397Y481387D01*
X373469Y479146D01*
X371646Y477324D01*
X366256Y471934D01*
X366214Y471876D01*
X366165Y471824D01*
X366143Y471777D01*
X366113Y471735D01*
X366092Y471666D01*
X366061Y471601D01*
X366056Y471549D01*
X366040Y471499D01*
X366042Y471428D01*
X366034Y471357D01*
X366045Y471306D01*
X366047Y471254D01*
X366071Y471186D01*
X366087Y471116D01*
X366113Y471071D01*
X366131Y471023D01*
X366176Y470967D01*
X366213Y470905D01*
X366252Y470871D01*
X366285Y470831D01*
X366345Y470792D01*
X366400Y470745D01*
X366448Y470726D01*
X366492Y470698D01*
X366561Y470680D01*
X366628Y470653D01*
X366699Y470645D01*
X366730Y470637D01*
X366754Y470639D01*
X366795Y470635D01*
X368439Y470635D01*
X370685Y469705D01*
X370748Y469690D01*
X370809Y469665D01*
X370892Y469656D01*
X370924Y469649D01*
X370943Y469650D01*
X370976Y469647D01*
X394834Y469647D01*
X394899Y469657D01*
X394964Y469658D01*
X395044Y469681D01*
X395077Y469686D01*
X395094Y469696D01*
X395125Y469705D01*
X397371Y470635D01*
X400189Y470635D01*
X402793Y469556D01*
X404786Y467563D01*
X405865Y464959D01*
X405865Y462141D01*
X404786Y459537D01*
X402793Y457544D01*
X400189Y456465D01*
X397371Y456465D01*
X395125Y457395D01*
X395062Y457410D01*
X395001Y457435D01*
X394918Y457444D01*
X394886Y457451D01*
X394867Y457450D01*
X394834Y457453D01*
X370976Y457453D01*
X370911Y457443D01*
X370846Y457442D01*
X370766Y457419D01*
X370733Y457414D01*
X370716Y457404D01*
X370685Y457395D01*
X368439Y456465D01*
X365621Y456465D01*
X363017Y457544D01*
X362996Y457564D01*
X362938Y457606D01*
X362886Y457656D01*
X362839Y457678D01*
X362797Y457708D01*
X362728Y457729D01*
X362663Y457759D01*
X362611Y457765D01*
X362562Y457780D01*
X362490Y457778D01*
X362419Y457786D01*
X362368Y457775D01*
X362316Y457774D01*
X362248Y457749D01*
X362178Y457734D01*
X362133Y457707D01*
X362085Y457690D01*
X362029Y457645D01*
X361967Y457608D01*
X361933Y457568D01*
X361893Y457536D01*
X361854Y457476D01*
X361807Y457421D01*
X361788Y457373D01*
X361760Y457329D01*
X361742Y457259D01*
X361715Y457193D01*
X361707Y457122D01*
X361699Y457090D01*
X361701Y457067D01*
X361697Y457026D01*
X361697Y414051D01*
X361704Y414005D01*
X361702Y413960D01*
X361724Y413885D01*
X361736Y413808D01*
X361758Y413767D01*
X361771Y413723D01*
X361815Y413659D01*
X361852Y413591D01*
X361885Y413559D01*
X361911Y413521D01*
X361973Y413475D01*
X362030Y413421D01*
X362072Y413402D01*
X362108Y413375D01*
X362182Y413350D01*
X362253Y413318D01*
X362299Y413313D01*
X362342Y413298D01*
X362420Y413299D01*
X362497Y413291D01*
X362542Y413300D01*
X362588Y413301D01*
X362719Y413339D01*
X362738Y413343D01*
X362742Y413345D01*
X362749Y413347D01*
X363081Y413485D01*
X365899Y413485D01*
X368503Y412406D01*
X370496Y410413D01*
X371575Y407809D01*
X371575Y404991D01*
X370645Y402745D01*
X370630Y402682D01*
X370605Y402621D01*
X370596Y402538D01*
X370589Y402506D01*
X370590Y402487D01*
X370587Y402454D01*
X370587Y364447D01*
X370598Y364377D01*
X370600Y364305D01*
X370618Y364256D01*
X370626Y364205D01*
X370660Y364141D01*
X370685Y364074D01*
X370717Y364033D01*
X370742Y363987D01*
X370794Y363938D01*
X370838Y363882D01*
X370882Y363854D01*
X370920Y363818D01*
X370985Y363788D01*
X371045Y363749D01*
X371096Y363736D01*
X371143Y363714D01*
X371214Y363706D01*
X371284Y363689D01*
X371336Y363693D01*
X371387Y363687D01*
X371458Y363702D01*
X371529Y363708D01*
X371577Y363728D01*
X371628Y363739D01*
X371689Y363776D01*
X371755Y363804D01*
X371811Y363849D01*
X371839Y363865D01*
X371854Y363883D01*
X371886Y363909D01*
X374021Y366044D01*
X378549Y367920D01*
X383451Y367920D01*
X387979Y366044D01*
X391444Y362579D01*
X393320Y358051D01*
X393320Y353149D01*
X391444Y348621D01*
X387979Y345156D01*
X383451Y343280D01*
X378549Y343280D01*
X374021Y345156D01*
X371886Y347291D01*
X371828Y347333D01*
X371776Y347382D01*
X371729Y347404D01*
X371687Y347435D01*
X371618Y347456D01*
X371553Y347486D01*
X371501Y347492D01*
X371451Y347507D01*
X371380Y347505D01*
X371309Y347513D01*
X371258Y347502D01*
X371206Y347501D01*
X371138Y347476D01*
X371068Y347461D01*
X371023Y347434D01*
X370975Y347416D01*
X370919Y347371D01*
X370857Y347335D01*
X370823Y347295D01*
X370783Y347262D01*
X370744Y347202D01*
X370697Y347148D01*
X370678Y347099D01*
X370650Y347055D01*
X370632Y346986D01*
X370605Y346919D01*
X370597Y346848D01*
X370589Y346817D01*
X370591Y346794D01*
X370587Y346753D01*
X370587Y315017D01*
X369783Y313077D01*
X369761Y312982D01*
X369732Y312889D01*
X369733Y312863D01*
X369727Y312837D01*
X369736Y312741D01*
X369738Y312643D01*
X369747Y312619D01*
X369750Y312593D01*
X369779Y312527D01*
X369766Y312526D01*
X369741Y312531D01*
X369644Y312516D01*
X369547Y312509D01*
X369523Y312499D01*
X369497Y312495D01*
X369410Y312451D01*
X369321Y312413D01*
X369295Y312392D01*
X369278Y312383D01*
X369255Y312360D01*
X369190Y312308D01*
X367836Y310954D01*
X361920Y305038D01*
X361867Y304964D01*
X361807Y304894D01*
X361795Y304864D01*
X361776Y304838D01*
X361749Y304751D01*
X361715Y304666D01*
X361711Y304625D01*
X361704Y304603D01*
X361705Y304571D01*
X361697Y304499D01*
X361697Y283346D01*
X361707Y283281D01*
X361708Y283216D01*
X361731Y283136D01*
X361736Y283103D01*
X361746Y283086D01*
X361755Y283055D01*
X362685Y280809D01*
X362685Y277991D01*
X361606Y275387D01*
X359613Y273394D01*
X357009Y272315D01*
X354191Y272315D01*
X351587Y273394D01*
X349594Y275387D01*
X348515Y277991D01*
X348515Y280809D01*
X349445Y283055D01*
X349460Y283118D01*
X349485Y283179D01*
X349494Y283262D01*
X349501Y283294D01*
X349500Y283313D01*
X349503Y283346D01*
X349503Y300943D01*
X349492Y301014D01*
X349490Y301086D01*
X349472Y301135D01*
X349464Y301186D01*
X349430Y301249D01*
X349405Y301317D01*
X349373Y301357D01*
X349348Y301404D01*
X349296Y301453D01*
X349252Y301509D01*
X349208Y301537D01*
X349170Y301573D01*
X349105Y301603D01*
X349045Y301642D01*
X348994Y301655D01*
X348947Y301677D01*
X348876Y301684D01*
X348806Y301702D01*
X348754Y301698D01*
X348703Y301704D01*
X348632Y301688D01*
X348561Y301683D01*
X348513Y301662D01*
X348462Y301651D01*
X348401Y301615D01*
X348335Y301586D01*
X348279Y301542D01*
X348251Y301525D01*
X348236Y301507D01*
X348204Y301482D01*
X346354Y299631D01*
X344113Y298703D01*
X245246Y298703D01*
X245181Y298693D01*
X245116Y298692D01*
X245036Y298669D01*
X245003Y298664D01*
X244986Y298654D01*
X244955Y298645D01*
X242709Y297715D01*
X239891Y297715D01*
X237287Y298794D01*
X235294Y300787D01*
X234215Y303391D01*
X234215Y306209D01*
X235294Y308813D01*
X237287Y310806D01*
X239891Y311885D01*
X242709Y311885D01*
X244955Y310955D01*
X245018Y310940D01*
X245079Y310915D01*
X245162Y310906D01*
X245194Y310899D01*
X245213Y310900D01*
X245246Y310897D01*
X246875Y310897D01*
X246921Y310904D01*
X246966Y310902D01*
X247041Y310924D01*
X247118Y310936D01*
X247159Y310958D01*
X247203Y310971D01*
X247267Y311015D01*
X247335Y311052D01*
X247367Y311085D01*
X247405Y311111D01*
X247451Y311173D01*
X247505Y311230D01*
X247524Y311272D01*
X247552Y311308D01*
X247576Y311382D01*
X247608Y311453D01*
X247614Y311499D01*
X247628Y311542D01*
X247627Y311620D01*
X247636Y311697D01*
X247626Y311742D01*
X247625Y311788D01*
X247587Y311920D01*
X247583Y311938D01*
X247581Y311942D01*
X247579Y311949D01*
X246915Y313551D01*
X246915Y316369D01*
X247994Y318973D01*
X249987Y320966D01*
X252591Y322045D01*
X255409Y322045D01*
X257655Y321115D01*
X257718Y321100D01*
X257779Y321075D01*
X257862Y321066D01*
X257894Y321059D01*
X257913Y321060D01*
X257946Y321057D01*
X336249Y321057D01*
X336339Y321071D01*
X336430Y321079D01*
X336460Y321091D01*
X336492Y321096D01*
X336573Y321139D01*
X336657Y321175D01*
X336689Y321201D01*
X336709Y321212D01*
X336732Y321235D01*
X336788Y321280D01*
X339120Y323612D01*
X339173Y323686D01*
X339233Y323756D01*
X339245Y323786D01*
X339264Y323812D01*
X339291Y323899D01*
X339325Y323984D01*
X339329Y324025D01*
X339336Y324047D01*
X339335Y324079D01*
X339343Y324151D01*
X339343Y457026D01*
X339341Y457039D01*
X339342Y457048D01*
X339332Y457095D01*
X339332Y457097D01*
X339330Y457169D01*
X339312Y457218D01*
X339304Y457269D01*
X339270Y457332D01*
X339245Y457400D01*
X339213Y457440D01*
X339188Y457486D01*
X339137Y457536D01*
X339092Y457592D01*
X339048Y457620D01*
X339010Y457656D01*
X338945Y457686D01*
X338885Y457725D01*
X338834Y457737D01*
X338787Y457759D01*
X338716Y457767D01*
X338646Y457785D01*
X338594Y457781D01*
X338543Y457786D01*
X338472Y457771D01*
X338401Y457766D01*
X338353Y457745D01*
X338302Y457734D01*
X338241Y457697D01*
X338175Y457669D01*
X338119Y457624D01*
X338091Y457608D01*
X338076Y457590D01*
X338044Y457564D01*
X338023Y457544D01*
X335419Y456465D01*
X332601Y456465D01*
X330355Y457395D01*
X330292Y457410D01*
X330231Y457435D01*
X330148Y457444D01*
X330116Y457451D01*
X330097Y457450D01*
X330064Y457453D01*
X232546Y457453D01*
X232481Y457443D01*
X232416Y457442D01*
X232336Y457419D01*
X232303Y457414D01*
X232286Y457404D01*
X232255Y457395D01*
X230009Y456465D01*
X227191Y456465D01*
X224587Y457544D01*
X222594Y459537D01*
X221515Y462141D01*
X221515Y464959D01*
X222594Y467563D01*
X224587Y469556D01*
X227191Y470635D01*
X230009Y470635D01*
X232255Y469705D01*
X232318Y469690D01*
X232379Y469665D01*
X232462Y469656D01*
X232494Y469649D01*
X232513Y469650D01*
X232546Y469647D01*
X330064Y469647D01*
X330129Y469657D01*
X330194Y469658D01*
X330274Y469681D01*
X330307Y469686D01*
X330324Y469696D01*
X330355Y469705D01*
X332601Y470635D01*
X335515Y470635D01*
X335586Y470646D01*
X335658Y470648D01*
X335707Y470666D01*
X335758Y470674D01*
X335821Y470708D01*
X335889Y470733D01*
X335929Y470765D01*
X335976Y470790D01*
X336025Y470842D01*
X336081Y470886D01*
X336109Y470930D01*
X336145Y470968D01*
X336175Y471033D01*
X336214Y471093D01*
X336227Y471144D01*
X336249Y471191D01*
X336256Y471262D01*
X336274Y471332D01*
X336270Y471384D01*
X336276Y471435D01*
X336260Y471506D01*
X336255Y471577D01*
X336234Y471625D01*
X336223Y471676D01*
X336187Y471737D01*
X336158Y471803D01*
X336114Y471859D01*
X336097Y471887D01*
X336079Y471902D01*
X336054Y471934D01*
X331708Y476280D01*
X331634Y476333D01*
X331564Y476393D01*
X331534Y476405D01*
X331508Y476424D01*
X331421Y476451D01*
X331336Y476485D01*
X331295Y476489D01*
X331273Y476496D01*
X331241Y476495D01*
X331169Y476503D01*
X278187Y476503D01*
X275946Y477431D01*
X261531Y491846D01*
X260603Y494087D01*
X260603Y515589D01*
X260596Y515635D01*
X260598Y515680D01*
X260576Y515755D01*
X260564Y515832D01*
X260542Y515873D01*
X260529Y515917D01*
X260485Y515981D01*
X260448Y516049D01*
X260415Y516081D01*
X260389Y516119D01*
X260327Y516165D01*
X260270Y516219D01*
X260228Y516238D01*
X260192Y516265D01*
X260118Y516290D01*
X260047Y516322D01*
X260001Y516327D01*
X259958Y516342D01*
X259880Y516341D01*
X259803Y516349D01*
X259758Y516340D01*
X259712Y516339D01*
X259581Y516301D01*
X259562Y516297D01*
X259558Y516295D01*
X259551Y516293D01*
X259219Y516155D01*
X256401Y516155D01*
X254155Y517085D01*
X254092Y517100D01*
X254031Y517125D01*
X253948Y517134D01*
X253916Y517141D01*
X253897Y517140D01*
X253864Y517143D01*
X240166Y517143D01*
X240101Y517133D01*
X240036Y517132D01*
X239956Y517109D01*
X239923Y517104D01*
X239906Y517094D01*
X239875Y517085D01*
X237629Y516155D01*
X234811Y516155D01*
X232207Y517234D01*
X230214Y519227D01*
X229135Y521831D01*
X229135Y524649D01*
X230214Y527253D01*
X230234Y527274D01*
X230276Y527332D01*
X230326Y527384D01*
X230348Y527431D01*
X230378Y527473D01*
X230399Y527542D01*
X230429Y527607D01*
X230435Y527659D01*
X230450Y527708D01*
X230448Y527780D01*
X230456Y527851D01*
X230445Y527902D01*
X230444Y527954D01*
X230419Y528022D01*
X230404Y528092D01*
X230377Y528137D01*
X230360Y528185D01*
X230315Y528241D01*
X230278Y528303D01*
X230238Y528337D01*
X230206Y528377D01*
X230146Y528416D01*
X230091Y528463D01*
X230043Y528482D01*
X229999Y528510D01*
X229929Y528528D01*
X229863Y528555D01*
X229792Y528563D01*
X229760Y528571D01*
X229737Y528569D01*
X229696Y528573D01*
X204771Y528573D01*
X204681Y528559D01*
X204590Y528551D01*
X204560Y528539D01*
X204528Y528534D01*
X204447Y528491D01*
X204363Y528455D01*
X204331Y528429D01*
X204311Y528418D01*
X204304Y528412D01*
X204303Y528411D01*
X204287Y528394D01*
X204232Y528350D01*
X193536Y517654D01*
X193494Y517596D01*
X193445Y517544D01*
X193423Y517497D01*
X193393Y517455D01*
X193372Y517386D01*
X193341Y517321D01*
X193336Y517269D01*
X193320Y517219D01*
X193322Y517148D01*
X193314Y517077D01*
X193325Y517026D01*
X193327Y516974D01*
X193351Y516906D01*
X193367Y516836D01*
X193393Y516791D01*
X193411Y516743D01*
X193456Y516687D01*
X193493Y516625D01*
X193532Y516591D01*
X193565Y516551D01*
X193625Y516512D01*
X193680Y516465D01*
X193728Y516446D01*
X193772Y516418D01*
X193841Y516400D01*
X193908Y516373D01*
X193979Y516365D01*
X194010Y516357D01*
X194034Y516359D01*
X194075Y516355D01*
X194449Y516355D01*
X196695Y515425D01*
X196758Y515410D01*
X196819Y515385D01*
X196902Y515376D01*
X196934Y515369D01*
X196953Y515370D01*
X196986Y515367D01*
X214573Y515367D01*
X216814Y514439D01*
X217421Y513831D01*
X217474Y513793D01*
X217521Y513747D01*
X217594Y513707D01*
X217621Y513688D01*
X217639Y513682D01*
X217668Y513666D01*
X219913Y512736D01*
X221906Y510743D01*
X222985Y508139D01*
X222985Y505321D01*
X221906Y502717D01*
X219913Y500724D01*
X217309Y499645D01*
X214491Y499645D01*
X211887Y500724D01*
X209887Y502724D01*
X209838Y502803D01*
X209778Y502903D01*
X209773Y502907D01*
X209770Y502912D01*
X209680Y502987D01*
X209591Y503063D01*
X209585Y503065D01*
X209580Y503069D01*
X209472Y503111D01*
X209363Y503155D01*
X209355Y503156D01*
X209351Y503157D01*
X209332Y503158D01*
X209196Y503173D01*
X196986Y503173D01*
X196921Y503163D01*
X196856Y503162D01*
X196776Y503139D01*
X196743Y503134D01*
X196726Y503124D01*
X196695Y503115D01*
X194449Y502185D01*
X191631Y502185D01*
X189027Y503264D01*
X187034Y505257D01*
X185955Y507861D01*
X185955Y508235D01*
X185944Y508306D01*
X185942Y508378D01*
X185924Y508427D01*
X185916Y508478D01*
X185882Y508541D01*
X185857Y508609D01*
X185825Y508649D01*
X185800Y508696D01*
X185748Y508745D01*
X185704Y508801D01*
X185660Y508829D01*
X185622Y508865D01*
X185557Y508895D01*
X185497Y508934D01*
X185446Y508947D01*
X185399Y508969D01*
X185328Y508976D01*
X185258Y508994D01*
X185206Y508990D01*
X185155Y508996D01*
X185084Y508980D01*
X185013Y508975D01*
X184965Y508954D01*
X184914Y508943D01*
X184853Y508907D01*
X184787Y508878D01*
X184731Y508834D01*
X184703Y508817D01*
X184688Y508799D01*
X184656Y508774D01*
X181580Y505698D01*
X181527Y505624D01*
X181467Y505554D01*
X181455Y505524D01*
X181436Y505498D01*
X181409Y505411D01*
X181375Y505326D01*
X181371Y505285D01*
X181364Y505263D01*
X181365Y505231D01*
X181357Y505159D01*
X181357Y419401D01*
X181371Y419311D01*
X181379Y419220D01*
X181391Y419190D01*
X181396Y419158D01*
X181439Y419077D01*
X181475Y418993D01*
X181501Y418961D01*
X181512Y418941D01*
X181535Y418918D01*
X181580Y418862D01*
X184401Y416041D01*
X184454Y416003D01*
X184501Y415957D01*
X184574Y415917D01*
X184601Y415898D01*
X184619Y415892D01*
X184648Y415876D01*
X186893Y414946D01*
X188886Y412953D01*
X189965Y410349D01*
X189965Y407435D01*
X189976Y407364D01*
X189978Y407292D01*
X189996Y407243D01*
X190004Y407192D01*
X190038Y407129D01*
X190063Y407061D01*
X190095Y407020D01*
X190120Y406974D01*
X190171Y406925D01*
X190216Y406869D01*
X190260Y406841D01*
X190298Y406805D01*
X190363Y406775D01*
X190423Y406736D01*
X190474Y406723D01*
X190521Y406701D01*
X190592Y406694D01*
X190662Y406676D01*
X190714Y406680D01*
X190765Y406674D01*
X190836Y406690D01*
X190907Y406695D01*
X190955Y406716D01*
X191006Y406727D01*
X191067Y406763D01*
X191133Y406792D01*
X191189Y406836D01*
X191217Y406853D01*
X191232Y406871D01*
X191264Y406896D01*
X192289Y407921D01*
X192327Y407974D01*
X192373Y408021D01*
X192413Y408094D01*
X192432Y408121D01*
X192438Y408139D01*
X192454Y408168D01*
X193384Y410413D01*
X195377Y412406D01*
X197981Y413485D01*
X200799Y413485D01*
X203403Y412406D01*
X203424Y412386D01*
X203482Y412344D01*
X203534Y412294D01*
X203581Y412272D01*
X203623Y412242D01*
X203692Y412221D01*
X203757Y412191D01*
X203809Y412185D01*
X203858Y412170D01*
X203930Y412172D01*
X204001Y412164D01*
X204052Y412175D01*
X204104Y412176D01*
X204172Y412201D01*
X204242Y412216D01*
X204287Y412243D01*
X204335Y412260D01*
X204391Y412305D01*
X204453Y412342D01*
X204487Y412382D01*
X204527Y412414D01*
X204566Y412474D01*
X204613Y412529D01*
X204632Y412577D01*
X204660Y412621D01*
X204678Y412691D01*
X204705Y412757D01*
X204713Y412828D01*
X204721Y412860D01*
X204719Y412883D01*
X204723Y412924D01*
X204723Y423752D01*
X204709Y423842D01*
X204701Y423933D01*
X204689Y423963D01*
X204684Y423995D01*
X204641Y424076D01*
X204605Y424159D01*
X204579Y424192D01*
X204568Y424212D01*
X204545Y424234D01*
X204500Y424290D01*
X203544Y425247D01*
X202614Y427492D01*
X202579Y427548D01*
X202554Y427608D01*
X202502Y427673D01*
X202484Y427701D01*
X202469Y427714D01*
X202449Y427739D01*
X192789Y437399D01*
X192736Y437437D01*
X192689Y437483D01*
X192616Y437523D01*
X192589Y437542D01*
X192571Y437548D01*
X192542Y437564D01*
X190297Y438494D01*
X188304Y440487D01*
X187225Y443091D01*
X187225Y445909D01*
X188304Y448513D01*
X190297Y450506D01*
X192901Y451585D01*
X195719Y451585D01*
X198323Y450506D01*
X200316Y448513D01*
X201246Y446268D01*
X201281Y446212D01*
X201306Y446152D01*
X201358Y446087D01*
X201376Y446059D01*
X201391Y446046D01*
X201411Y446021D01*
X211071Y436361D01*
X211124Y436323D01*
X211171Y436277D01*
X211244Y436237D01*
X211271Y436218D01*
X211289Y436212D01*
X211318Y436196D01*
X213563Y435266D01*
X215556Y433273D01*
X216635Y430669D01*
X216635Y430035D01*
X216645Y429970D01*
X216646Y429905D01*
X216669Y429825D01*
X216674Y429792D01*
X216684Y429775D01*
X216693Y429744D01*
X216917Y429203D01*
X216917Y357006D01*
X216927Y356941D01*
X216928Y356876D01*
X216951Y356796D01*
X216956Y356763D01*
X216966Y356746D01*
X216975Y356715D01*
X217905Y354469D01*
X217905Y351651D01*
X216826Y349047D01*
X214833Y347054D01*
X212229Y345975D01*
X209411Y345975D01*
X206807Y347054D01*
X204814Y349047D01*
X203735Y351651D01*
X203735Y354469D01*
X204665Y356715D01*
X204680Y356778D01*
X204705Y356839D01*
X204714Y356922D01*
X204721Y356954D01*
X204720Y356973D01*
X204723Y357006D01*
X204723Y399876D01*
X204712Y399947D01*
X204710Y400019D01*
X204692Y400068D01*
X204684Y400119D01*
X204650Y400182D01*
X204625Y400250D01*
X204593Y400290D01*
X204568Y400336D01*
X204517Y400386D01*
X204472Y400442D01*
X204428Y400470D01*
X204390Y400506D01*
X204325Y400536D01*
X204265Y400575D01*
X204214Y400587D01*
X204167Y400609D01*
X204096Y400617D01*
X204026Y400635D01*
X203974Y400631D01*
X203923Y400636D01*
X203852Y400621D01*
X203781Y400616D01*
X203733Y400595D01*
X203682Y400584D01*
X203621Y400547D01*
X203555Y400519D01*
X203499Y400474D01*
X203471Y400458D01*
X203456Y400440D01*
X203424Y400414D01*
X203403Y400394D01*
X201158Y399464D01*
X201102Y399429D01*
X201042Y399404D01*
X200977Y399352D01*
X200949Y399334D01*
X200936Y399319D01*
X200911Y399299D01*
X196820Y395208D01*
X196767Y395134D01*
X196707Y395064D01*
X196695Y395034D01*
X196676Y395008D01*
X196649Y394921D01*
X196615Y394836D01*
X196611Y394795D01*
X196604Y394773D01*
X196605Y394741D01*
X196597Y394669D01*
X196597Y256841D01*
X196611Y256751D01*
X196619Y256660D01*
X196631Y256630D01*
X196636Y256598D01*
X196679Y256517D01*
X196715Y256433D01*
X196741Y256401D01*
X196752Y256381D01*
X196775Y256358D01*
X196820Y256302D01*
X209312Y243810D01*
X209386Y243757D01*
X209456Y243697D01*
X209486Y243685D01*
X209512Y243666D01*
X209599Y243639D01*
X209684Y243605D01*
X209725Y243601D01*
X209747Y243594D01*
X209779Y243595D01*
X209851Y243587D01*
X280534Y243587D01*
X280599Y243597D01*
X280664Y243598D01*
X280744Y243621D01*
X280777Y243626D01*
X280794Y243636D01*
X280825Y243645D01*
X283071Y244575D01*
X285889Y244575D01*
X288493Y243496D01*
X290486Y241503D01*
X291565Y238899D01*
X291565Y236081D01*
X290486Y233477D01*
X288493Y231484D01*
X285889Y230405D01*
X283071Y230405D01*
G37*
%LPD*%
%LPC*%
G36*
X440551Y43715D02*
X440551Y43715D01*
X437947Y44794D01*
X435954Y46787D01*
X434875Y49391D01*
X434875Y52209D01*
X435805Y54455D01*
X435820Y54518D01*
X435845Y54579D01*
X435854Y54662D01*
X435861Y54694D01*
X435860Y54713D01*
X435863Y54746D01*
X435863Y88599D01*
X435849Y88689D01*
X435841Y88780D01*
X435829Y88810D01*
X435824Y88842D01*
X435781Y88923D01*
X435745Y89007D01*
X435719Y89039D01*
X435708Y89059D01*
X435685Y89082D01*
X435640Y89138D01*
X433308Y91470D01*
X433234Y91523D01*
X433164Y91583D01*
X433134Y91595D01*
X433108Y91614D01*
X433021Y91641D01*
X432936Y91675D01*
X432895Y91679D01*
X432873Y91686D01*
X432841Y91685D01*
X432769Y91693D01*
X428047Y91693D01*
X425806Y92621D01*
X421551Y96876D01*
X420623Y99117D01*
X420623Y135382D01*
X420620Y135402D01*
X420622Y135421D01*
X420600Y135523D01*
X420584Y135625D01*
X420574Y135642D01*
X420570Y135662D01*
X420517Y135751D01*
X420468Y135842D01*
X420454Y135856D01*
X420444Y135873D01*
X420365Y135940D01*
X420290Y136012D01*
X420272Y136020D01*
X420257Y136033D01*
X420161Y136072D01*
X420067Y136115D01*
X420047Y136117D01*
X420029Y136125D01*
X419862Y136143D01*
X402726Y136143D01*
X402661Y136133D01*
X402596Y136132D01*
X402516Y136109D01*
X402483Y136104D01*
X402466Y136094D01*
X402435Y136085D01*
X400189Y135155D01*
X397371Y135155D01*
X394767Y136234D01*
X392774Y138227D01*
X391695Y140831D01*
X391695Y143649D01*
X392359Y145251D01*
X392369Y145295D01*
X392388Y145337D01*
X392397Y145414D01*
X392415Y145490D01*
X392410Y145536D01*
X392416Y145581D01*
X392399Y145658D01*
X392392Y145735D01*
X392373Y145777D01*
X392363Y145822D01*
X392323Y145889D01*
X392292Y145960D01*
X392261Y145994D01*
X392237Y146033D01*
X392178Y146084D01*
X392125Y146141D01*
X392085Y146163D01*
X392050Y146193D01*
X391978Y146222D01*
X391910Y146259D01*
X391865Y146268D01*
X391822Y146285D01*
X391686Y146300D01*
X391668Y146303D01*
X391663Y146302D01*
X391655Y146303D01*
X296046Y146303D01*
X295981Y146293D01*
X295916Y146292D01*
X295836Y146269D01*
X295803Y146264D01*
X295786Y146254D01*
X295755Y146245D01*
X293509Y145315D01*
X290691Y145315D01*
X288087Y146394D01*
X286094Y148387D01*
X285015Y150991D01*
X285015Y153809D01*
X286094Y156413D01*
X288087Y158406D01*
X290691Y159485D01*
X293509Y159485D01*
X295755Y158555D01*
X295818Y158540D01*
X295879Y158515D01*
X295962Y158506D01*
X295994Y158499D01*
X296013Y158500D01*
X296046Y158497D01*
X437849Y158497D01*
X437939Y158511D01*
X438030Y158519D01*
X438060Y158531D01*
X438092Y158536D01*
X438173Y158579D01*
X438257Y158615D01*
X438289Y158641D01*
X438309Y158652D01*
X438332Y158675D01*
X438388Y158720D01*
X469930Y190262D01*
X469983Y190336D01*
X470043Y190406D01*
X470055Y190436D01*
X470074Y190462D01*
X470101Y190549D01*
X470135Y190634D01*
X470139Y190675D01*
X470146Y190697D01*
X470145Y190729D01*
X470153Y190801D01*
X470153Y195465D01*
X470138Y195561D01*
X470128Y195658D01*
X470118Y195682D01*
X470114Y195708D01*
X470068Y195794D01*
X470028Y195883D01*
X470011Y195902D01*
X469998Y195925D01*
X469928Y195992D01*
X469862Y196064D01*
X469839Y196077D01*
X469820Y196095D01*
X469732Y196136D01*
X469646Y196183D01*
X469621Y196187D01*
X469597Y196198D01*
X469500Y196209D01*
X469404Y196226D01*
X469378Y196222D01*
X469353Y196225D01*
X469257Y196205D01*
X469161Y196190D01*
X469138Y196179D01*
X469112Y196173D01*
X469029Y196123D01*
X468942Y196079D01*
X468923Y196060D01*
X468901Y196047D01*
X468838Y195973D01*
X468770Y195903D01*
X468754Y195875D01*
X468741Y195860D01*
X468729Y195829D01*
X468689Y195756D01*
X468613Y195574D01*
X464826Y191787D01*
X463767Y191348D01*
X463667Y191286D01*
X463567Y191227D01*
X463563Y191222D01*
X463558Y191218D01*
X463483Y191128D01*
X463407Y191040D01*
X463405Y191034D01*
X463401Y191029D01*
X463359Y190921D01*
X463315Y190811D01*
X463314Y190804D01*
X463313Y190799D01*
X463312Y190781D01*
X463297Y190645D01*
X463297Y189287D01*
X462369Y187046D01*
X447954Y172631D01*
X445713Y171703D01*
X354387Y171703D01*
X352146Y172631D01*
X317936Y206842D01*
X317862Y206895D01*
X317792Y206955D01*
X317762Y206967D01*
X317736Y206986D01*
X317649Y207013D01*
X317564Y207047D01*
X317523Y207051D01*
X317501Y207058D01*
X317469Y207057D01*
X317397Y207065D01*
X268708Y207065D01*
X268643Y207055D01*
X268578Y207054D01*
X268498Y207031D01*
X268465Y207026D01*
X268448Y207016D01*
X268417Y207007D01*
X266171Y206077D01*
X263353Y206077D01*
X260749Y207156D01*
X258756Y209149D01*
X257677Y211753D01*
X257677Y214571D01*
X258324Y216132D01*
X258350Y216246D01*
X258379Y216359D01*
X258379Y216366D01*
X258380Y216372D01*
X258369Y216488D01*
X258360Y216605D01*
X258358Y216610D01*
X258357Y216617D01*
X258309Y216724D01*
X258264Y216831D01*
X258259Y216837D01*
X258257Y216841D01*
X258244Y216855D01*
X258159Y216962D01*
X256884Y218237D01*
X255805Y220841D01*
X255805Y223659D01*
X256884Y226263D01*
X258877Y228256D01*
X261481Y229335D01*
X264299Y229335D01*
X266545Y228405D01*
X266608Y228390D01*
X266669Y228365D01*
X266752Y228356D01*
X266784Y228349D01*
X266803Y228350D01*
X266836Y228347D01*
X397209Y228347D01*
X397299Y228361D01*
X397390Y228369D01*
X397420Y228381D01*
X397452Y228386D01*
X397533Y228429D01*
X397617Y228465D01*
X397649Y228491D01*
X397669Y228502D01*
X397692Y228525D01*
X397748Y228570D01*
X399272Y230094D01*
X399314Y230152D01*
X399363Y230204D01*
X399385Y230251D01*
X399415Y230293D01*
X399436Y230362D01*
X399467Y230427D01*
X399472Y230479D01*
X399488Y230529D01*
X399486Y230600D01*
X399494Y230671D01*
X399483Y230722D01*
X399481Y230774D01*
X399457Y230842D01*
X399441Y230912D01*
X399415Y230957D01*
X399397Y231005D01*
X399352Y231061D01*
X399315Y231123D01*
X399276Y231157D01*
X399243Y231197D01*
X399183Y231236D01*
X399128Y231283D01*
X399080Y231302D01*
X399036Y231330D01*
X398967Y231348D01*
X398900Y231375D01*
X398829Y231383D01*
X398798Y231391D01*
X398774Y231389D01*
X398733Y231393D01*
X377326Y231393D01*
X377261Y231383D01*
X377196Y231382D01*
X377116Y231359D01*
X377083Y231354D01*
X377066Y231344D01*
X377035Y231335D01*
X374789Y230405D01*
X371971Y230405D01*
X369367Y231484D01*
X367374Y233477D01*
X366295Y236081D01*
X366295Y238899D01*
X367374Y241503D01*
X369367Y243496D01*
X371971Y244575D01*
X374789Y244575D01*
X377035Y243645D01*
X377098Y243630D01*
X377159Y243605D01*
X377242Y243596D01*
X377274Y243589D01*
X377293Y243590D01*
X377326Y243587D01*
X408432Y243587D01*
X408452Y243590D01*
X408471Y243588D01*
X408573Y243610D01*
X408675Y243626D01*
X408692Y243636D01*
X408712Y243640D01*
X408801Y243693D01*
X408892Y243742D01*
X408906Y243756D01*
X408923Y243766D01*
X408990Y243845D01*
X409062Y243920D01*
X409070Y243938D01*
X409083Y243953D01*
X409122Y244049D01*
X409165Y244143D01*
X409167Y244163D01*
X409175Y244181D01*
X409193Y244348D01*
X409193Y262833D01*
X410121Y265074D01*
X411944Y266896D01*
X411971Y266933D01*
X412006Y266966D01*
X412042Y267032D01*
X412086Y267092D01*
X412101Y267139D01*
X412125Y267181D01*
X412138Y267255D01*
X412161Y267326D01*
X412160Y267375D01*
X412168Y267423D01*
X412158Y267497D01*
X412156Y267572D01*
X412140Y267618D01*
X412133Y267667D01*
X412099Y267734D01*
X412074Y267804D01*
X412043Y267842D01*
X412021Y267886D01*
X411968Y267938D01*
X411921Y267997D01*
X411880Y268024D01*
X411845Y268058D01*
X411736Y268119D01*
X411716Y268132D01*
X411708Y268134D01*
X411699Y268139D01*
X411635Y268165D01*
X411572Y268180D01*
X411511Y268205D01*
X411428Y268214D01*
X411396Y268222D01*
X411376Y268220D01*
X411344Y268223D01*
X376221Y268223D01*
X376131Y268209D01*
X376040Y268201D01*
X376010Y268189D01*
X375978Y268184D01*
X375897Y268141D01*
X375813Y268105D01*
X375781Y268079D01*
X375761Y268068D01*
X375756Y268064D01*
X375737Y268044D01*
X375682Y268000D01*
X356514Y248831D01*
X354273Y247903D01*
X224926Y247903D01*
X224861Y247893D01*
X224796Y247892D01*
X224716Y247869D01*
X224683Y247864D01*
X224666Y247854D01*
X224635Y247845D01*
X222389Y246915D01*
X219571Y246915D01*
X216967Y247994D01*
X214974Y249987D01*
X213895Y252591D01*
X213895Y255409D01*
X214974Y258013D01*
X216967Y260006D01*
X219571Y261085D01*
X222389Y261085D01*
X224635Y260155D01*
X224698Y260140D01*
X224759Y260115D01*
X224842Y260106D01*
X224874Y260099D01*
X224893Y260100D01*
X224926Y260097D01*
X350219Y260097D01*
X350309Y260111D01*
X350400Y260119D01*
X350430Y260131D01*
X350462Y260136D01*
X350543Y260179D01*
X350627Y260215D01*
X350659Y260241D01*
X350679Y260252D01*
X350702Y260275D01*
X350758Y260320D01*
X369926Y279489D01*
X372167Y280417D01*
X411344Y280417D01*
X411409Y280427D01*
X411474Y280428D01*
X411554Y280451D01*
X411587Y280456D01*
X411604Y280466D01*
X411635Y280475D01*
X413881Y281405D01*
X416699Y281405D01*
X419303Y280326D01*
X421296Y278333D01*
X421597Y277607D01*
X421607Y277590D01*
X421613Y277571D01*
X421672Y277486D01*
X421727Y277398D01*
X421742Y277385D01*
X421753Y277369D01*
X421836Y277307D01*
X421916Y277241D01*
X421935Y277234D01*
X421951Y277222D01*
X422049Y277190D01*
X422146Y277153D01*
X422166Y277152D01*
X422185Y277146D01*
X422288Y277147D01*
X422391Y277143D01*
X422411Y277148D01*
X422430Y277148D01*
X422592Y277195D01*
X424237Y277877D01*
X450793Y277877D01*
X453034Y276949D01*
X462369Y267614D01*
X462839Y266477D01*
X462887Y266400D01*
X462929Y266319D01*
X462952Y266296D01*
X462969Y266268D01*
X463039Y266210D01*
X463104Y266146D01*
X463140Y266127D01*
X463158Y266112D01*
X463188Y266100D01*
X463251Y266065D01*
X464886Y265388D01*
X464887Y265387D01*
X464904Y265381D01*
X464912Y265377D01*
X464933Y265363D01*
X465026Y265334D01*
X465117Y265299D01*
X465143Y265298D01*
X465168Y265290D01*
X465265Y265293D01*
X465362Y265289D01*
X465387Y265296D01*
X465414Y265297D01*
X465505Y265330D01*
X465599Y265357D01*
X465620Y265372D01*
X465645Y265381D01*
X465721Y265442D01*
X465801Y265498D01*
X465816Y265519D01*
X465837Y265535D01*
X465889Y265617D01*
X465947Y265695D01*
X465955Y265720D01*
X465970Y265742D01*
X465993Y265836D01*
X466024Y265929D01*
X466023Y265955D01*
X466030Y265980D01*
X466022Y266077D01*
X466021Y266175D01*
X466012Y266206D01*
X466011Y266226D01*
X465998Y266256D01*
X465974Y266336D01*
X465355Y267831D01*
X465355Y270649D01*
X466285Y272895D01*
X466300Y272958D01*
X466325Y273019D01*
X466334Y273102D01*
X466341Y273134D01*
X466340Y273153D01*
X466343Y273186D01*
X466343Y382134D01*
X466333Y382199D01*
X466332Y382264D01*
X466309Y382344D01*
X466304Y382377D01*
X466294Y382394D01*
X466285Y382425D01*
X465355Y384671D01*
X465355Y387489D01*
X466434Y390093D01*
X468427Y392086D01*
X471031Y393165D01*
X473849Y393165D01*
X476453Y392086D01*
X478446Y390093D01*
X479525Y387489D01*
X479525Y384671D01*
X478595Y382425D01*
X478580Y382362D01*
X478555Y382301D01*
X478546Y382218D01*
X478539Y382186D01*
X478540Y382167D01*
X478537Y382134D01*
X478537Y273186D01*
X478547Y273121D01*
X478548Y273056D01*
X478571Y272976D01*
X478576Y272943D01*
X478586Y272926D01*
X478595Y272895D01*
X479525Y270649D01*
X479525Y267831D01*
X478446Y265227D01*
X476453Y263234D01*
X473849Y262155D01*
X471031Y262155D01*
X469536Y262774D01*
X469441Y262797D01*
X469348Y262825D01*
X469322Y262825D01*
X469296Y262831D01*
X469200Y262822D01*
X469102Y262819D01*
X469078Y262810D01*
X469052Y262808D01*
X468963Y262768D01*
X468871Y262735D01*
X468851Y262718D01*
X468827Y262708D01*
X468755Y262642D01*
X468679Y262581D01*
X468665Y262559D01*
X468646Y262541D01*
X468599Y262456D01*
X468546Y262374D01*
X468540Y262349D01*
X468527Y262326D01*
X468510Y262230D01*
X468486Y262135D01*
X468488Y262109D01*
X468483Y262084D01*
X468498Y261987D01*
X468505Y261890D01*
X468515Y261866D01*
X468519Y261840D01*
X468553Y261774D01*
X468555Y261766D01*
X470663Y256678D01*
X470663Y251322D01*
X468613Y246374D01*
X464826Y242587D01*
X463417Y242003D01*
X463356Y241966D01*
X463291Y241936D01*
X463252Y241901D01*
X463208Y241874D01*
X463162Y241818D01*
X463110Y241770D01*
X463085Y241724D01*
X463051Y241684D01*
X463026Y241617D01*
X462991Y241554D01*
X462982Y241503D01*
X462963Y241455D01*
X462960Y241383D01*
X462947Y241312D01*
X462955Y241261D01*
X462953Y241209D01*
X462973Y241140D01*
X462983Y241069D01*
X463007Y241023D01*
X463021Y240973D01*
X463062Y240914D01*
X463095Y240850D01*
X463132Y240813D01*
X463162Y240771D01*
X463219Y240728D01*
X463270Y240678D01*
X463333Y240643D01*
X463359Y240624D01*
X463381Y240617D01*
X463417Y240597D01*
X464826Y240013D01*
X468613Y236226D01*
X469052Y235167D01*
X469113Y235067D01*
X469173Y234967D01*
X469178Y234963D01*
X469182Y234958D01*
X469271Y234883D01*
X469360Y234807D01*
X469366Y234805D01*
X469371Y234801D01*
X469479Y234759D01*
X469589Y234715D01*
X469596Y234714D01*
X469601Y234713D01*
X469619Y234712D01*
X469755Y234697D01*
X471113Y234697D01*
X473354Y233769D01*
X479596Y227526D01*
X479597Y227526D01*
X481419Y225704D01*
X482347Y223463D01*
X482347Y186747D01*
X481419Y184506D01*
X444144Y147231D01*
X441903Y146303D01*
X434371Y146303D01*
X434325Y146296D01*
X434280Y146298D01*
X434205Y146276D01*
X434128Y146264D01*
X434087Y146242D01*
X434043Y146229D01*
X433979Y146185D01*
X433911Y146148D01*
X433879Y146115D01*
X433841Y146089D01*
X433795Y146027D01*
X433741Y145970D01*
X433722Y145928D01*
X433695Y145892D01*
X433670Y145818D01*
X433638Y145747D01*
X433633Y145701D01*
X433618Y145658D01*
X433619Y145580D01*
X433611Y145503D01*
X433620Y145458D01*
X433621Y145412D01*
X433659Y145281D01*
X433663Y145262D01*
X433665Y145258D01*
X433667Y145251D01*
X433805Y144919D01*
X433805Y142101D01*
X432875Y139855D01*
X432864Y139811D01*
X432846Y139772D01*
X432844Y139753D01*
X432835Y139731D01*
X432826Y139648D01*
X432819Y139616D01*
X432820Y139597D01*
X432817Y139564D01*
X432817Y104648D01*
X432820Y104628D01*
X432818Y104609D01*
X432840Y104507D01*
X432856Y104405D01*
X432866Y104388D01*
X432870Y104368D01*
X432923Y104279D01*
X432972Y104188D01*
X432986Y104174D01*
X432996Y104157D01*
X433075Y104090D01*
X433150Y104018D01*
X433168Y104010D01*
X433183Y103997D01*
X433279Y103958D01*
X433373Y103915D01*
X433393Y103913D01*
X433411Y103905D01*
X433578Y103887D01*
X436823Y103887D01*
X439064Y102959D01*
X447129Y94894D01*
X448057Y92653D01*
X448057Y54746D01*
X448067Y54681D01*
X448068Y54616D01*
X448091Y54536D01*
X448096Y54503D01*
X448106Y54486D01*
X448115Y54455D01*
X449045Y52209D01*
X449045Y49391D01*
X447966Y46787D01*
X445973Y44794D01*
X443369Y43715D01*
X440551Y43715D01*
G37*
%LPD*%
%LPC*%
G36*
X271837Y376173D02*
X271837Y376173D01*
X269596Y377101D01*
X261531Y385166D01*
X260603Y387407D01*
X260603Y415154D01*
X260601Y415168D01*
X260602Y415179D01*
X260593Y415223D01*
X260592Y415284D01*
X260569Y415364D01*
X260564Y415397D01*
X260554Y415414D01*
X260545Y415445D01*
X259615Y417691D01*
X259615Y420509D01*
X260694Y423113D01*
X262687Y425106D01*
X265291Y426185D01*
X268109Y426185D01*
X270713Y425106D01*
X272706Y423113D01*
X273785Y420509D01*
X273785Y417691D01*
X272855Y415445D01*
X272840Y415382D01*
X272815Y415321D01*
X272806Y415238D01*
X272799Y415206D01*
X272800Y415187D01*
X272797Y415154D01*
X272797Y391461D01*
X272811Y391371D01*
X272819Y391280D01*
X272831Y391250D01*
X272836Y391218D01*
X272879Y391137D01*
X272915Y391053D01*
X272941Y391021D01*
X272952Y391001D01*
X272975Y390978D01*
X273020Y390922D01*
X275352Y388590D01*
X275426Y388537D01*
X275496Y388477D01*
X275526Y388465D01*
X275552Y388446D01*
X275639Y388419D01*
X275724Y388385D01*
X275765Y388381D01*
X275787Y388374D01*
X275819Y388375D01*
X275891Y388367D01*
X288116Y388367D01*
X288187Y388378D01*
X288259Y388380D01*
X288308Y388398D01*
X288359Y388406D01*
X288422Y388440D01*
X288490Y388465D01*
X288530Y388497D01*
X288576Y388522D01*
X288626Y388574D01*
X288682Y388618D01*
X288710Y388662D01*
X288746Y388700D01*
X288776Y388765D01*
X288815Y388825D01*
X288827Y388876D01*
X288849Y388923D01*
X288857Y388994D01*
X288875Y389064D01*
X288871Y389116D01*
X288876Y389167D01*
X288861Y389238D01*
X288856Y389309D01*
X288835Y389357D01*
X288824Y389408D01*
X288787Y389469D01*
X288759Y389535D01*
X288714Y389591D01*
X288698Y389619D01*
X288680Y389634D01*
X288654Y389666D01*
X287364Y390957D01*
X286285Y393561D01*
X286285Y396379D01*
X287364Y398983D01*
X289357Y400976D01*
X291961Y402055D01*
X294779Y402055D01*
X297025Y401125D01*
X297088Y401110D01*
X297149Y401085D01*
X297232Y401076D01*
X297264Y401069D01*
X297283Y401070D01*
X297316Y401067D01*
X319532Y401067D01*
X319552Y401070D01*
X319571Y401068D01*
X319673Y401090D01*
X319775Y401106D01*
X319792Y401116D01*
X319812Y401120D01*
X319901Y401173D01*
X319992Y401222D01*
X320006Y401236D01*
X320023Y401246D01*
X320090Y401325D01*
X320162Y401400D01*
X320170Y401418D01*
X320183Y401433D01*
X320222Y401529D01*
X320265Y401623D01*
X320267Y401643D01*
X320275Y401661D01*
X320293Y401828D01*
X320293Y402454D01*
X320283Y402519D01*
X320282Y402584D01*
X320259Y402664D01*
X320254Y402697D01*
X320244Y402714D01*
X320235Y402745D01*
X319305Y404991D01*
X319305Y407809D01*
X320384Y410413D01*
X322377Y412406D01*
X324981Y413485D01*
X327799Y413485D01*
X330403Y412406D01*
X332396Y410413D01*
X333475Y407809D01*
X333475Y404991D01*
X332545Y402745D01*
X332530Y402682D01*
X332505Y402621D01*
X332496Y402538D01*
X332489Y402506D01*
X332490Y402487D01*
X332487Y402454D01*
X332487Y397567D01*
X331559Y395326D01*
X326034Y389801D01*
X323793Y388873D01*
X321484Y388873D01*
X321413Y388862D01*
X321341Y388860D01*
X321292Y388842D01*
X321241Y388834D01*
X321178Y388800D01*
X321110Y388775D01*
X321070Y388743D01*
X321024Y388718D01*
X320974Y388667D01*
X320918Y388622D01*
X320890Y388578D01*
X320854Y388540D01*
X320824Y388475D01*
X320785Y388415D01*
X320773Y388364D01*
X320751Y388317D01*
X320743Y388246D01*
X320725Y388176D01*
X320729Y388124D01*
X320724Y388073D01*
X320739Y388002D01*
X320744Y387931D01*
X320765Y387883D01*
X320776Y387832D01*
X320813Y387771D01*
X320841Y387705D01*
X320886Y387649D01*
X320902Y387621D01*
X320920Y387606D01*
X320946Y387574D01*
X320966Y387553D01*
X322045Y384949D01*
X322045Y382131D01*
X320966Y379527D01*
X318973Y377534D01*
X316369Y376455D01*
X315735Y376455D01*
X315670Y376445D01*
X315605Y376444D01*
X315525Y376421D01*
X315492Y376416D01*
X315475Y376406D01*
X315444Y376397D01*
X314903Y376173D01*
X271837Y376173D01*
G37*
%LPD*%
%LPC*%
G36*
X33811Y105435D02*
X33811Y105435D01*
X25885Y108718D01*
X19818Y114785D01*
X16535Y122711D01*
X16535Y131289D01*
X19818Y139215D01*
X25885Y145282D01*
X33811Y148565D01*
X42389Y148565D01*
X50315Y145282D01*
X56382Y139215D01*
X59665Y131289D01*
X59665Y122711D01*
X56382Y114785D01*
X50315Y108718D01*
X42389Y105435D01*
X33811Y105435D01*
G37*
%LPD*%
%LPC*%
G36*
X452911Y105435D02*
X452911Y105435D01*
X444985Y108718D01*
X438918Y114785D01*
X435635Y122711D01*
X435635Y131289D01*
X438918Y139215D01*
X444985Y145282D01*
X452911Y148565D01*
X461489Y148565D01*
X469415Y145282D01*
X475482Y139215D01*
X478765Y131289D01*
X478765Y122711D01*
X475482Y114785D01*
X469415Y108718D01*
X461489Y105435D01*
X452911Y105435D01*
G37*
%LPD*%
%LPC*%
G36*
X289422Y494537D02*
X289422Y494537D01*
X284474Y496587D01*
X280687Y500374D01*
X278637Y505322D01*
X278637Y510678D01*
X280687Y515626D01*
X284474Y519413D01*
X289422Y521463D01*
X294778Y521463D01*
X299726Y519413D01*
X303513Y515626D01*
X304097Y514217D01*
X304135Y514156D01*
X304164Y514091D01*
X304199Y514052D01*
X304226Y514008D01*
X304282Y513962D01*
X304330Y513910D01*
X304376Y513885D01*
X304416Y513851D01*
X304483Y513826D01*
X304546Y513791D01*
X304597Y513782D01*
X304645Y513763D01*
X304717Y513760D01*
X304788Y513747D01*
X304839Y513755D01*
X304891Y513753D01*
X304960Y513773D01*
X305031Y513783D01*
X305077Y513807D01*
X305127Y513821D01*
X305186Y513862D01*
X305250Y513895D01*
X305287Y513932D01*
X305329Y513962D01*
X305372Y514019D01*
X305422Y514070D01*
X305457Y514133D01*
X305476Y514159D01*
X305483Y514181D01*
X305503Y514217D01*
X306087Y515626D01*
X309874Y519413D01*
X314822Y521463D01*
X320178Y521463D01*
X325126Y519413D01*
X328913Y515626D01*
X329497Y514217D01*
X329548Y514134D01*
X329594Y514048D01*
X329612Y514030D01*
X329626Y514008D01*
X329702Y513946D01*
X329772Y513879D01*
X329796Y513868D01*
X329816Y513851D01*
X329907Y513816D01*
X329995Y513775D01*
X330021Y513772D01*
X330045Y513763D01*
X330143Y513759D01*
X330239Y513748D01*
X330265Y513754D01*
X330291Y513753D01*
X330385Y513780D01*
X330480Y513801D01*
X330502Y513814D01*
X330527Y513821D01*
X330607Y513877D01*
X330691Y513927D01*
X330708Y513947D01*
X330729Y513961D01*
X330788Y514040D01*
X330851Y514114D01*
X330861Y514138D01*
X330876Y514159D01*
X330906Y514251D01*
X330943Y514342D01*
X330946Y514374D01*
X330952Y514393D01*
X330952Y514426D01*
X330961Y514508D01*
X330961Y517732D01*
X331134Y518379D01*
X331469Y518958D01*
X331942Y519431D01*
X332521Y519766D01*
X333168Y519939D01*
X341377Y519939D01*
X341377Y508762D01*
X341379Y508747D01*
X341378Y508734D01*
X341379Y508730D01*
X341378Y508723D01*
X341400Y508621D01*
X341417Y508519D01*
X341426Y508502D01*
X341430Y508482D01*
X341483Y508393D01*
X341532Y508302D01*
X341546Y508288D01*
X341556Y508271D01*
X341635Y508204D01*
X341710Y508133D01*
X341728Y508124D01*
X341743Y508111D01*
X341839Y508073D01*
X341933Y508029D01*
X341953Y508027D01*
X341971Y508019D01*
X342138Y508001D01*
X342901Y508001D01*
X342901Y507999D01*
X342138Y507999D01*
X342118Y507996D01*
X342099Y507998D01*
X341997Y507976D01*
X341895Y507959D01*
X341878Y507950D01*
X341858Y507946D01*
X341769Y507893D01*
X341678Y507844D01*
X341664Y507830D01*
X341647Y507820D01*
X341580Y507741D01*
X341509Y507666D01*
X341500Y507648D01*
X341487Y507633D01*
X341448Y507537D01*
X341405Y507443D01*
X341403Y507423D01*
X341395Y507405D01*
X341377Y507238D01*
X341377Y496061D01*
X333168Y496061D01*
X332521Y496234D01*
X331942Y496569D01*
X331469Y497042D01*
X331134Y497621D01*
X330961Y498268D01*
X330961Y501492D01*
X330946Y501588D01*
X330936Y501685D01*
X330926Y501708D01*
X330922Y501734D01*
X330876Y501820D01*
X330836Y501909D01*
X330819Y501929D01*
X330806Y501952D01*
X330736Y502019D01*
X330670Y502090D01*
X330647Y502103D01*
X330628Y502121D01*
X330540Y502162D01*
X330454Y502209D01*
X330429Y502214D01*
X330405Y502225D01*
X330308Y502235D01*
X330212Y502253D01*
X330186Y502249D01*
X330161Y502252D01*
X330065Y502231D01*
X329969Y502217D01*
X329946Y502205D01*
X329920Y502199D01*
X329837Y502150D01*
X329750Y502105D01*
X329731Y502087D01*
X329709Y502073D01*
X329646Y501999D01*
X329578Y501930D01*
X329562Y501901D01*
X329549Y501886D01*
X329537Y501856D01*
X329497Y501783D01*
X328913Y500374D01*
X325126Y496587D01*
X320178Y494537D01*
X314822Y494537D01*
X309874Y496587D01*
X306087Y500374D01*
X305503Y501783D01*
X305465Y501844D01*
X305436Y501909D01*
X305401Y501947D01*
X305374Y501992D01*
X305318Y502038D01*
X305270Y502090D01*
X305224Y502115D01*
X305184Y502149D01*
X305117Y502174D01*
X305054Y502209D01*
X305003Y502218D01*
X304955Y502237D01*
X304883Y502240D01*
X304812Y502253D01*
X304761Y502245D01*
X304709Y502247D01*
X304640Y502227D01*
X304569Y502217D01*
X304523Y502193D01*
X304473Y502179D01*
X304414Y502138D01*
X304350Y502105D01*
X304313Y502068D01*
X304271Y502038D01*
X304228Y501981D01*
X304178Y501930D01*
X304143Y501867D01*
X304124Y501841D01*
X304117Y501819D01*
X304097Y501783D01*
X303513Y500374D01*
X299726Y496587D01*
X294778Y494537D01*
X289422Y494537D01*
G37*
%LPD*%
%LPC*%
G36*
X248781Y353595D02*
X248781Y353595D01*
X246177Y354674D01*
X244184Y356667D01*
X243254Y358912D01*
X243219Y358968D01*
X243194Y359028D01*
X243142Y359093D01*
X243124Y359121D01*
X243109Y359134D01*
X243089Y359159D01*
X241211Y361036D01*
X240283Y363277D01*
X240283Y422774D01*
X240281Y422785D01*
X240282Y422792D01*
X240275Y422826D01*
X240273Y422839D01*
X240272Y422904D01*
X240249Y422984D01*
X240244Y423017D01*
X240234Y423034D01*
X240225Y423065D01*
X239295Y425311D01*
X239295Y428129D01*
X240374Y430733D01*
X242367Y432726D01*
X244971Y433805D01*
X247789Y433805D01*
X250393Y432726D01*
X252386Y430733D01*
X253465Y428129D01*
X253465Y425311D01*
X252535Y423065D01*
X252520Y423002D01*
X252495Y422941D01*
X252486Y422858D01*
X252479Y422826D01*
X252480Y422807D01*
X252477Y422774D01*
X252477Y367910D01*
X252478Y367903D01*
X252478Y367900D01*
X252496Y367795D01*
X252513Y367679D01*
X252515Y367673D01*
X252516Y367667D01*
X252571Y367565D01*
X252624Y367460D01*
X252629Y367455D01*
X252632Y367450D01*
X252716Y367370D01*
X252800Y367287D01*
X252806Y367284D01*
X252810Y367280D01*
X252827Y367273D01*
X252947Y367207D01*
X254203Y366686D01*
X256196Y364693D01*
X257275Y362089D01*
X257275Y359271D01*
X256196Y356667D01*
X254203Y354674D01*
X251599Y353595D01*
X248781Y353595D01*
G37*
%LPD*%
%LPC*%
G36*
X35421Y467895D02*
X35421Y467895D01*
X32817Y468974D01*
X30824Y470967D01*
X29817Y473397D01*
X29807Y473414D01*
X29801Y473433D01*
X29742Y473518D01*
X29688Y473606D01*
X29672Y473619D01*
X29661Y473635D01*
X29578Y473697D01*
X29498Y473763D01*
X29479Y473770D01*
X29463Y473782D01*
X29365Y473814D01*
X29268Y473851D01*
X29249Y473852D01*
X29230Y473858D01*
X29126Y473857D01*
X29023Y473862D01*
X29004Y473856D01*
X28984Y473856D01*
X28823Y473809D01*
X26809Y472975D01*
X23991Y472975D01*
X21387Y474054D01*
X19394Y476047D01*
X18315Y478651D01*
X18315Y481469D01*
X19245Y483715D01*
X19260Y483778D01*
X19285Y483839D01*
X19294Y483922D01*
X19301Y483954D01*
X19300Y483973D01*
X19303Y484006D01*
X19303Y504054D01*
X19293Y504119D01*
X19292Y504184D01*
X19269Y504264D01*
X19264Y504297D01*
X19254Y504314D01*
X19245Y504345D01*
X18315Y506591D01*
X18315Y509409D01*
X19394Y512013D01*
X21387Y514006D01*
X23991Y515085D01*
X26809Y515085D01*
X29413Y514006D01*
X31406Y512013D01*
X32485Y509409D01*
X32485Y506591D01*
X31555Y504345D01*
X31540Y504282D01*
X31515Y504221D01*
X31506Y504138D01*
X31499Y504106D01*
X31500Y504087D01*
X31497Y504054D01*
X31497Y484006D01*
X31507Y483941D01*
X31508Y483876D01*
X31531Y483796D01*
X31536Y483763D01*
X31546Y483746D01*
X31555Y483715D01*
X32413Y481643D01*
X32423Y481626D01*
X32429Y481607D01*
X32488Y481522D01*
X32542Y481434D01*
X32558Y481421D01*
X32569Y481405D01*
X32652Y481343D01*
X32732Y481277D01*
X32751Y481270D01*
X32767Y481258D01*
X32865Y481226D01*
X32962Y481189D01*
X32981Y481188D01*
X33000Y481182D01*
X33104Y481183D01*
X33207Y481178D01*
X33226Y481184D01*
X33246Y481184D01*
X33407Y481231D01*
X35421Y482065D01*
X36055Y482065D01*
X36120Y482075D01*
X36185Y482076D01*
X36265Y482099D01*
X36298Y482104D01*
X36315Y482114D01*
X36346Y482123D01*
X36887Y482347D01*
X57014Y482347D01*
X57079Y482357D01*
X57144Y482358D01*
X57224Y482381D01*
X57257Y482386D01*
X57274Y482396D01*
X57305Y482405D01*
X59551Y483335D01*
X62369Y483335D01*
X64973Y482256D01*
X66966Y480263D01*
X68045Y477659D01*
X68045Y474841D01*
X66966Y472237D01*
X64973Y470244D01*
X62369Y469165D01*
X59551Y469165D01*
X57305Y470095D01*
X57242Y470110D01*
X57181Y470135D01*
X57098Y470144D01*
X57066Y470151D01*
X57047Y470150D01*
X57014Y470153D01*
X42338Y470153D01*
X42248Y470139D01*
X42157Y470131D01*
X42127Y470119D01*
X42095Y470114D01*
X42014Y470071D01*
X41931Y470035D01*
X41898Y470009D01*
X41878Y469998D01*
X41856Y469975D01*
X41800Y469930D01*
X40843Y468974D01*
X38239Y467895D01*
X35421Y467895D01*
G37*
%LPD*%
%LPC*%
G36*
X225503Y914183D02*
X225503Y914183D01*
X215683Y924003D01*
X215683Y937892D01*
X225503Y947712D01*
X239392Y947712D01*
X249212Y937892D01*
X249212Y924003D01*
X239392Y914183D01*
X225503Y914183D01*
G37*
%LPD*%
%LPC*%
G36*
X290691Y51335D02*
X290691Y51335D01*
X288087Y52414D01*
X286094Y54407D01*
X285015Y57011D01*
X285015Y59829D01*
X286094Y62433D01*
X288087Y64426D01*
X290691Y65505D01*
X293509Y65505D01*
X295755Y64575D01*
X295818Y64560D01*
X295879Y64535D01*
X295962Y64526D01*
X295994Y64519D01*
X296013Y64520D01*
X296046Y64517D01*
X346574Y64517D01*
X346639Y64527D01*
X346704Y64528D01*
X346784Y64551D01*
X346817Y64556D01*
X346834Y64566D01*
X346865Y64575D01*
X349111Y65505D01*
X351929Y65505D01*
X354533Y64426D01*
X356526Y62433D01*
X357605Y59829D01*
X357605Y57011D01*
X356526Y54407D01*
X354533Y52414D01*
X351929Y51335D01*
X349111Y51335D01*
X346865Y52265D01*
X346802Y52280D01*
X346741Y52305D01*
X346658Y52314D01*
X346626Y52321D01*
X346607Y52320D01*
X346574Y52323D01*
X296046Y52323D01*
X295981Y52313D01*
X295916Y52312D01*
X295836Y52289D01*
X295803Y52284D01*
X295786Y52274D01*
X295755Y52265D01*
X293509Y51335D01*
X290691Y51335D01*
G37*
%LPD*%
%LPC*%
G36*
X48121Y198655D02*
X48121Y198655D01*
X45517Y199734D01*
X43524Y201727D01*
X42445Y204331D01*
X42445Y207149D01*
X43375Y209395D01*
X43390Y209458D01*
X43415Y209519D01*
X43424Y209602D01*
X43431Y209634D01*
X43430Y209653D01*
X43433Y209686D01*
X43433Y255134D01*
X43423Y255199D01*
X43422Y255264D01*
X43399Y255344D01*
X43394Y255377D01*
X43384Y255394D01*
X43375Y255425D01*
X42445Y257671D01*
X42445Y260489D01*
X43524Y263093D01*
X45517Y265086D01*
X48121Y266165D01*
X50939Y266165D01*
X53543Y265086D01*
X55536Y263093D01*
X56615Y260489D01*
X56615Y257671D01*
X55685Y255425D01*
X55670Y255362D01*
X55645Y255301D01*
X55636Y255218D01*
X55629Y255186D01*
X55630Y255167D01*
X55627Y255134D01*
X55627Y209686D01*
X55637Y209621D01*
X55638Y209556D01*
X55661Y209476D01*
X55666Y209443D01*
X55676Y209426D01*
X55685Y209395D01*
X56615Y207149D01*
X56615Y204331D01*
X55536Y201727D01*
X53543Y199734D01*
X50939Y198655D01*
X48121Y198655D01*
G37*
%LPD*%
%LPC*%
G36*
X59551Y39905D02*
X59551Y39905D01*
X56947Y40984D01*
X54954Y42977D01*
X53875Y45581D01*
X53875Y48399D01*
X54805Y50645D01*
X54820Y50708D01*
X54845Y50769D01*
X54854Y50852D01*
X54861Y50884D01*
X54860Y50903D01*
X54863Y50936D01*
X54863Y79874D01*
X54853Y79939D01*
X54852Y80004D01*
X54829Y80084D01*
X54824Y80117D01*
X54814Y80134D01*
X54805Y80165D01*
X53875Y82411D01*
X53875Y85229D01*
X54954Y87833D01*
X56947Y89826D01*
X59551Y90905D01*
X62369Y90905D01*
X64973Y89826D01*
X66966Y87833D01*
X68045Y85229D01*
X68045Y82411D01*
X67115Y80165D01*
X67100Y80102D01*
X67075Y80041D01*
X67066Y79958D01*
X67059Y79926D01*
X67060Y79907D01*
X67057Y79874D01*
X67057Y50936D01*
X67067Y50871D01*
X67068Y50806D01*
X67091Y50726D01*
X67096Y50693D01*
X67106Y50676D01*
X67115Y50645D01*
X68045Y48399D01*
X68045Y45581D01*
X66966Y42977D01*
X64973Y40984D01*
X62369Y39905D01*
X59551Y39905D01*
G37*
%LPD*%
%LPC*%
G36*
X378549Y292480D02*
X378549Y292480D01*
X374021Y294356D01*
X370556Y297821D01*
X368680Y302349D01*
X368680Y307251D01*
X370431Y311478D01*
X370454Y311573D01*
X370482Y311666D01*
X370482Y311692D01*
X370488Y311718D01*
X370478Y311814D01*
X370476Y311912D01*
X370467Y311936D01*
X370464Y311963D01*
X370435Y312028D01*
X370448Y312029D01*
X370474Y312024D01*
X370570Y312039D01*
X370667Y312046D01*
X370691Y312056D01*
X370717Y312060D01*
X370804Y312104D01*
X370894Y312142D01*
X370919Y312163D01*
X370936Y312172D01*
X370960Y312195D01*
X371025Y312247D01*
X374021Y315244D01*
X378549Y317120D01*
X383451Y317120D01*
X387979Y315244D01*
X391444Y311779D01*
X393320Y307251D01*
X393320Y302349D01*
X391444Y297821D01*
X387979Y294356D01*
X383451Y292480D01*
X378549Y292480D01*
G37*
%LPD*%
%LPC*%
G36*
X179900Y572635D02*
X179900Y572635D01*
X175649Y574396D01*
X172396Y577649D01*
X170635Y581900D01*
X170635Y586500D01*
X172396Y590751D01*
X175649Y594004D01*
X179900Y595765D01*
X184500Y595765D01*
X188751Y594004D01*
X192004Y590751D01*
X193765Y586500D01*
X193765Y581900D01*
X192004Y577649D01*
X188751Y574396D01*
X184500Y572635D01*
X179900Y572635D01*
G37*
%LPD*%
%LPC*%
G36*
X252591Y72925D02*
X252591Y72925D01*
X249987Y74004D01*
X247994Y75997D01*
X246915Y78601D01*
X246915Y81419D01*
X247845Y83665D01*
X247860Y83728D01*
X247885Y83789D01*
X247894Y83872D01*
X247901Y83904D01*
X247900Y83923D01*
X247903Y83956D01*
X247903Y96384D01*
X247893Y96449D01*
X247892Y96514D01*
X247869Y96594D01*
X247864Y96627D01*
X247854Y96644D01*
X247845Y96675D01*
X246915Y98921D01*
X246915Y101739D01*
X247994Y104343D01*
X249987Y106336D01*
X252591Y107415D01*
X255409Y107415D01*
X258013Y106336D01*
X260006Y104343D01*
X261085Y101739D01*
X261085Y98921D01*
X260155Y96675D01*
X260140Y96612D01*
X260115Y96551D01*
X260106Y96468D01*
X260099Y96436D01*
X260100Y96417D01*
X260097Y96384D01*
X260097Y83956D01*
X260107Y83891D01*
X260108Y83826D01*
X260131Y83746D01*
X260136Y83713D01*
X260146Y83696D01*
X260155Y83665D01*
X261085Y81419D01*
X261085Y78601D01*
X260006Y75997D01*
X258013Y74004D01*
X255409Y72925D01*
X252591Y72925D01*
G37*
%LPD*%
%LPC*%
G36*
X115823Y954023D02*
X115823Y954023D01*
X115823Y965201D01*
X124794Y965201D01*
X125441Y965028D01*
X126020Y964693D01*
X126493Y964220D01*
X126828Y963641D01*
X127001Y962994D01*
X127001Y954023D01*
X115823Y954023D01*
G37*
%LPD*%
%LPC*%
G36*
X101599Y954023D02*
X101599Y954023D01*
X101599Y962994D01*
X101772Y963641D01*
X102107Y964220D01*
X102580Y964693D01*
X103159Y965028D01*
X103806Y965201D01*
X112777Y965201D01*
X112777Y954023D01*
X101599Y954023D01*
G37*
%LPD*%
%LPC*%
G36*
X115823Y939799D02*
X115823Y939799D01*
X115823Y950977D01*
X127001Y950977D01*
X127001Y942006D01*
X126828Y941359D01*
X126493Y940780D01*
X126020Y940307D01*
X125441Y939972D01*
X124794Y939799D01*
X115823Y939799D01*
G37*
%LPD*%
%LPC*%
G36*
X103806Y939799D02*
X103806Y939799D01*
X103159Y939972D01*
X102580Y940307D01*
X102107Y940780D01*
X101772Y941359D01*
X101599Y942006D01*
X101599Y950977D01*
X112777Y950977D01*
X112777Y939799D01*
X103806Y939799D01*
G37*
%LPD*%
%LPC*%
G36*
X259530Y979297D02*
X259530Y979297D01*
X259883Y979568D01*
X261613Y980567D01*
X263459Y981331D01*
X265389Y981848D01*
X267369Y982109D01*
X269367Y982109D01*
X271348Y981848D01*
X273278Y981331D01*
X275124Y980567D01*
X276854Y979568D01*
X277206Y979297D01*
X268368Y970459D01*
X259530Y979297D01*
G37*
%LPD*%
%LPC*%
G36*
X271959Y966868D02*
X271959Y966868D01*
X280797Y975706D01*
X281068Y975354D01*
X282067Y973624D01*
X282831Y971778D01*
X283348Y969848D01*
X283609Y967867D01*
X283609Y965869D01*
X283348Y963889D01*
X282831Y961959D01*
X282067Y960113D01*
X281068Y958383D01*
X280797Y958030D01*
X271959Y966868D01*
G37*
%LPD*%
%LPC*%
G36*
X255669Y958383D02*
X255669Y958383D01*
X254670Y960113D01*
X253906Y961959D01*
X253388Y963889D01*
X253128Y965869D01*
X253128Y967867D01*
X253388Y969848D01*
X253906Y971778D01*
X254670Y973624D01*
X255669Y975354D01*
X255939Y975706D01*
X264777Y966868D01*
X255939Y958030D01*
X255669Y958383D01*
G37*
%LPD*%
%LPC*%
G36*
X267369Y951628D02*
X267369Y951628D01*
X265389Y951888D01*
X263459Y952406D01*
X261613Y953170D01*
X259883Y954169D01*
X259530Y954439D01*
X268368Y963277D01*
X277206Y954439D01*
X276854Y954169D01*
X275124Y953170D01*
X273278Y952406D01*
X271348Y951888D01*
X269367Y951628D01*
X267369Y951628D01*
G37*
%LPD*%
%LPC*%
G36*
X344423Y509523D02*
X344423Y509523D01*
X344423Y519939D01*
X352632Y519939D01*
X353279Y519766D01*
X353858Y519431D01*
X354331Y518958D01*
X354666Y518379D01*
X354839Y517732D01*
X354839Y509523D01*
X344423Y509523D01*
G37*
%LPD*%
%LPC*%
G36*
X344423Y496061D02*
X344423Y496061D01*
X344423Y506477D01*
X354839Y506477D01*
X354839Y498268D01*
X354666Y497621D01*
X354331Y497042D01*
X353858Y496569D01*
X353279Y496234D01*
X352632Y496061D01*
X344423Y496061D01*
G37*
%LPD*%
%LPC*%
G36*
X183723Y661923D02*
X183723Y661923D01*
X183723Y670441D01*
X190034Y670441D01*
X190681Y670268D01*
X191260Y669933D01*
X191733Y669460D01*
X192068Y668881D01*
X192241Y668234D01*
X192241Y661923D01*
X183723Y661923D01*
G37*
%LPD*%
%LPC*%
G36*
X183723Y650359D02*
X183723Y650359D01*
X183723Y658877D01*
X192241Y658877D01*
X192241Y652566D01*
X192068Y651919D01*
X191733Y651340D01*
X191260Y650867D01*
X190681Y650532D01*
X190034Y650359D01*
X183723Y650359D01*
G37*
%LPD*%
%LPC*%
G36*
X172159Y661923D02*
X172159Y661923D01*
X172159Y668234D01*
X172332Y668881D01*
X172667Y669460D01*
X173140Y669933D01*
X173719Y670268D01*
X174366Y670441D01*
X180677Y670441D01*
X180677Y661923D01*
X172159Y661923D01*
G37*
%LPD*%
%LPC*%
G36*
X174366Y650359D02*
X174366Y650359D01*
X173719Y650532D01*
X173140Y650867D01*
X172667Y651340D01*
X172332Y651919D01*
X172159Y652566D01*
X172159Y658877D01*
X180677Y658877D01*
X180677Y650359D01*
X174366Y650359D01*
G37*
%LPD*%
%LPC*%
G36*
X167549Y955749D02*
X167549Y955749D01*
X167549Y964799D01*
X169175Y964270D01*
X170957Y963363D01*
X172574Y962188D01*
X173988Y960774D01*
X175163Y959157D01*
X176070Y957375D01*
X176599Y955749D01*
X167549Y955749D01*
G37*
%LPD*%
%LPC*%
G36*
X152001Y955749D02*
X152001Y955749D01*
X152530Y957375D01*
X153437Y959157D01*
X154612Y960774D01*
X156026Y962188D01*
X157643Y963363D01*
X159425Y964270D01*
X161051Y964799D01*
X161051Y955749D01*
X152001Y955749D01*
G37*
%LPD*%
%LPC*%
G36*
X167549Y949251D02*
X167549Y949251D01*
X176599Y949251D01*
X176070Y947625D01*
X175163Y945843D01*
X173988Y944226D01*
X172574Y942812D01*
X170957Y941637D01*
X169175Y940730D01*
X167549Y940201D01*
X167549Y949251D01*
G37*
%LPD*%
%LPC*%
G36*
X159425Y940730D02*
X159425Y940730D01*
X157643Y941637D01*
X156026Y942812D01*
X154612Y944226D01*
X153437Y945843D01*
X152530Y947625D01*
X152001Y949251D01*
X161051Y949251D01*
X161051Y940201D01*
X159425Y940730D01*
G37*
%LPD*%
%LPC*%
G36*
X183723Y608077D02*
X183723Y608077D01*
X192125Y608077D01*
X191994Y607249D01*
X191505Y605746D01*
X190788Y604337D01*
X189859Y603059D01*
X188741Y601941D01*
X187463Y601012D01*
X186054Y600295D01*
X184551Y599806D01*
X183723Y599675D01*
X183723Y608077D01*
G37*
%LPD*%
%LPC*%
G36*
X179849Y599806D02*
X179849Y599806D01*
X178346Y600295D01*
X176937Y601012D01*
X175659Y601941D01*
X174541Y603059D01*
X173612Y604337D01*
X172895Y605746D01*
X172406Y607249D01*
X172275Y608077D01*
X180677Y608077D01*
X180677Y599675D01*
X179849Y599806D01*
G37*
%LPD*%
%LPC*%
G36*
X182199Y660399D02*
X182199Y660399D01*
X182199Y660401D01*
X182201Y660401D01*
X182201Y660399D01*
X182199Y660399D01*
G37*
%LPD*%
%LPC*%
G36*
X114299Y952499D02*
X114299Y952499D01*
X114299Y952501D01*
X114301Y952501D01*
X114301Y952499D01*
X114299Y952499D01*
G37*
%LPD*%
D10*
X381000Y355600D03*
X381000Y304800D03*
D11*
X457200Y203200D03*
X431800Y203200D03*
X457200Y228600D03*
X431800Y228600D03*
X457200Y254000D03*
X431800Y254000D03*
D12*
X342900Y952500D03*
D13*
X392900Y952500D03*
D14*
X268368Y966868D03*
D15*
X232447Y930947D03*
D12*
X114300Y952500D03*
D13*
X164300Y952500D03*
D16*
X342900Y508000D03*
D11*
X317500Y508000D03*
X292100Y508000D03*
D17*
X182200Y660400D03*
D18*
X182200Y635000D03*
X182200Y609600D03*
X182200Y584200D03*
D19*
X445770Y335280D03*
X309880Y237490D03*
X215900Y281940D03*
X330200Y294640D03*
X271780Y121920D03*
X335280Y123190D03*
X243840Y193040D03*
X461010Y276860D03*
X328930Y337820D03*
X297180Y339090D03*
X153670Y394970D03*
X152400Y448310D03*
X81280Y439420D03*
X81280Y426720D03*
X114300Y123190D03*
X139700Y123190D03*
X254000Y80010D03*
D20*
X254000Y100330D01*
D19*
X254000Y100330D03*
X426720Y143510D03*
D20*
X425450Y142240D01*
X398780Y142240D01*
D19*
X398780Y142240D03*
X246380Y426720D03*
D20*
X246380Y364490D01*
X250190Y360680D01*
D19*
X250190Y360680D03*
X441960Y50800D03*
D20*
X441960Y91440D01*
X435610Y97790D01*
X429260Y97790D01*
X426720Y100330D01*
X426720Y143510D01*
D19*
X373380Y237490D03*
D20*
X411480Y237490D01*
X415290Y241300D01*
X415290Y261620D02*
X425450Y271780D01*
X449580Y271780D01*
X457200Y264160D02*
X457200Y254000D01*
X415290Y261620D02*
X415290Y241300D01*
X449580Y271780D02*
X457200Y264160D01*
D19*
X472440Y269240D03*
D20*
X472440Y386080D01*
D19*
X472440Y386080D03*
D20*
X469900Y228600D02*
X457200Y228600D01*
X469900Y228600D02*
X476250Y222250D01*
X476250Y187960D01*
D19*
X292100Y152400D03*
D20*
X440690Y152400D02*
X476250Y187960D01*
X440690Y152400D02*
X292100Y152400D01*
D19*
X262890Y222250D03*
D20*
X400050Y222250D01*
X406400Y228600D01*
X431800Y228600D01*
D19*
X264762Y213162D03*
D20*
X320238Y213162D01*
X355600Y177800D02*
X444500Y177800D01*
X457200Y190500D01*
X457200Y203200D01*
X355600Y177800D02*
X320238Y213162D01*
D19*
X292100Y58420D03*
D20*
X350520Y58420D01*
D19*
X350520Y58420D03*
X228600Y463550D03*
D20*
X334010Y463550D01*
D19*
X334010Y463550D03*
X367030Y463550D03*
D20*
X398780Y463550D01*
D19*
X398780Y463550D03*
X415290Y274320D03*
D20*
X373380Y274320D01*
X353060Y254000D01*
X220980Y254000D01*
D19*
X220980Y254000D03*
X49530Y259080D03*
X49530Y205740D03*
D20*
X49530Y259080D01*
D19*
X194310Y444500D03*
D20*
X209550Y429260D01*
D19*
X209550Y429260D03*
X210820Y353060D03*
D20*
X210820Y427990D01*
X209550Y429260D01*
D19*
X266700Y419100D03*
D20*
X266700Y388620D01*
X273050Y382270D01*
X313690Y382270D01*
X314960Y383540D01*
D19*
X314960Y383540D03*
X215900Y506730D03*
D20*
X213360Y509270D01*
X193040Y509270D01*
D19*
X193040Y509270D03*
X25400Y480060D03*
D20*
X25400Y508000D01*
D19*
X25400Y508000D03*
X60960Y476250D03*
D20*
X38100Y476250D01*
X36830Y474980D01*
D19*
X36830Y474980D03*
X167640Y410210D03*
D20*
X167640Y515620D01*
X175260Y523240D01*
D19*
X175260Y523240D03*
X236220Y523240D03*
D20*
X257810Y523240D01*
D19*
X257810Y523240D03*
X182880Y408940D03*
D20*
X175260Y416560D01*
X175260Y508000D01*
X201930Y534670D01*
D19*
X257810Y534670D03*
D20*
X201930Y534670D01*
D19*
X284480Y237490D03*
D20*
X207010Y237490D01*
X190500Y254000D01*
X190500Y397510D01*
X199390Y406400D01*
D19*
X199390Y406400D03*
X355600Y279400D03*
D20*
X355600Y307340D01*
X364490Y316230D01*
X364490Y406400D01*
D19*
X364490Y406400D03*
X326390Y406400D03*
D20*
X326390Y398780D01*
X322580Y394970D01*
X293370Y394970D01*
D19*
X293370Y394970D03*
X411480Y641350D03*
X445770Y641350D03*
X471170Y641350D03*
X331470Y660400D03*
X331470Y642620D03*
X360680Y754380D03*
X360680Y723900D03*
X234950Y882650D03*
X234950Y840740D03*
X124460Y772160D03*
X26670Y774700D03*
X386080Y670560D03*
D21*
X268368Y815340D02*
X268368Y966868D01*
X268368Y815340D02*
X268368Y806465D01*
X267970Y806450D01*
X290830Y783590D02*
X342900Y783590D01*
X457200Y783590D01*
X290830Y783590D02*
X267970Y806450D01*
D19*
X342900Y769620D03*
D22*
X342900Y783590D01*
D19*
X457200Y770890D03*
D22*
X457200Y783590D01*
D19*
X469900Y712470D03*
X469900Y727710D03*
X469900Y740410D03*
X469900Y753110D03*
X469900Y767080D03*
X167640Y816610D03*
D23*
X267098Y816610D01*
X268368Y815340D01*
D19*
X254000Y314960D03*
D20*
X339090Y314960D01*
X345440Y321310D01*
X334010Y482600D02*
X279400Y482600D01*
X266700Y495300D01*
X266700Y533400D01*
X279400Y546100D01*
D19*
X279400Y546100D03*
D20*
X345440Y471170D02*
X345440Y321310D01*
X345440Y471170D02*
X334010Y482600D01*
D19*
X241300Y304800D03*
D20*
X342900Y304800D01*
X355600Y317500D01*
X355600Y469900D01*
X368300Y482600D01*
X368300Y520700D01*
X355600Y533400D01*
X355600Y546100D01*
D19*
X355600Y546100D03*
X60960Y83820D03*
D20*
X60960Y46990D01*
D19*
X60960Y46990D03*
M02*
