G04 EAGLE Gerber RS-274X export*
G75*
%MOMM*%
%FSLAX34Y34*%
%LPD*%
%IN*%
%IPPOS*%
%AMOC8*
5,1,8,0,0,1.08239X$1,22.5*%
G01*
%ADD10C,0.254000*%


D10*
X0Y50000D02*
X190Y45642D01*
X760Y41318D01*
X1704Y37059D01*
X3015Y32899D01*
X4685Y28869D01*
X6699Y25000D01*
X9042Y21321D01*
X11698Y17861D01*
X14645Y14645D01*
X17861Y11698D01*
X21321Y9042D01*
X25000Y6699D01*
X28869Y4685D01*
X32899Y3015D01*
X37059Y1704D01*
X41318Y760D01*
X45642Y190D01*
X50000Y0D01*
X445100Y0D01*
X449458Y190D01*
X453782Y760D01*
X458041Y1704D01*
X462201Y3015D01*
X466231Y4685D01*
X470100Y6699D01*
X473779Y9042D01*
X477239Y11698D01*
X480455Y14645D01*
X483402Y17861D01*
X486058Y21321D01*
X488401Y25000D01*
X490415Y28869D01*
X492085Y32899D01*
X493396Y37059D01*
X494340Y41318D01*
X494910Y45642D01*
X495100Y50000D01*
X495100Y950000D01*
X494910Y954358D01*
X494340Y958682D01*
X493396Y962941D01*
X492085Y967101D01*
X490415Y971131D01*
X488401Y975000D01*
X486058Y978679D01*
X483402Y982139D01*
X480455Y985355D01*
X477239Y988302D01*
X473779Y990958D01*
X470100Y993301D01*
X466231Y995315D01*
X462201Y996985D01*
X458041Y998296D01*
X453782Y999240D01*
X449458Y999810D01*
X445100Y1000000D01*
X50000Y1000000D01*
X45642Y999810D01*
X41318Y999240D01*
X37059Y998296D01*
X32899Y996985D01*
X28869Y995315D01*
X25000Y993301D01*
X21321Y990958D01*
X17861Y988302D01*
X14645Y985355D01*
X11698Y982139D01*
X9042Y978679D01*
X6699Y975000D01*
X4685Y971131D01*
X3015Y967101D01*
X1704Y962941D01*
X760Y958682D01*
X190Y954358D01*
X0Y950000D01*
X0Y50000D01*
X55600Y126427D02*
X55525Y125284D01*
X55376Y124148D01*
X55152Y123024D01*
X54855Y121917D01*
X54487Y120832D01*
X54049Y119774D01*
X53542Y118746D01*
X52969Y117754D01*
X52332Y116801D01*
X51635Y115892D01*
X50879Y115031D01*
X50069Y114221D01*
X49208Y113465D01*
X48299Y112768D01*
X47346Y112131D01*
X46354Y111558D01*
X45326Y111051D01*
X44268Y110613D01*
X43183Y110245D01*
X42076Y109948D01*
X40952Y109725D01*
X39816Y109575D01*
X38673Y109500D01*
X37527Y109500D01*
X36384Y109575D01*
X35248Y109725D01*
X34124Y109948D01*
X33017Y110245D01*
X31932Y110613D01*
X30874Y111051D01*
X29846Y111558D01*
X28854Y112131D01*
X27901Y112768D01*
X26992Y113465D01*
X26131Y114221D01*
X25321Y115031D01*
X24565Y115892D01*
X23868Y116801D01*
X23231Y117754D01*
X22658Y118746D01*
X22151Y119774D01*
X21713Y120832D01*
X21345Y121917D01*
X21048Y123024D01*
X20825Y124148D01*
X20675Y125284D01*
X20600Y126427D01*
X20600Y127573D01*
X20675Y128716D01*
X20825Y129852D01*
X21048Y130976D01*
X21345Y132083D01*
X21713Y133168D01*
X22151Y134226D01*
X22658Y135254D01*
X23231Y136246D01*
X23868Y137199D01*
X24565Y138108D01*
X25321Y138969D01*
X26131Y139779D01*
X26992Y140535D01*
X27901Y141232D01*
X28854Y141869D01*
X29846Y142442D01*
X30874Y142949D01*
X31932Y143387D01*
X33017Y143755D01*
X34124Y144052D01*
X35248Y144276D01*
X36384Y144425D01*
X37527Y144500D01*
X38673Y144500D01*
X39816Y144425D01*
X40952Y144276D01*
X42076Y144052D01*
X43183Y143755D01*
X44268Y143387D01*
X45326Y142949D01*
X46354Y142442D01*
X47346Y141869D01*
X48299Y141232D01*
X49208Y140535D01*
X50069Y139779D01*
X50879Y138969D01*
X51635Y138108D01*
X52332Y137199D01*
X52969Y136246D01*
X53542Y135254D01*
X54049Y134226D01*
X54487Y133168D01*
X54855Y132083D01*
X55152Y130976D01*
X55376Y129852D01*
X55525Y128716D01*
X55600Y127573D01*
X55600Y126427D01*
X474700Y126427D02*
X474625Y125284D01*
X474476Y124148D01*
X474252Y123024D01*
X473955Y121917D01*
X473587Y120832D01*
X473149Y119774D01*
X472642Y118746D01*
X472069Y117754D01*
X471432Y116801D01*
X470735Y115892D01*
X469979Y115031D01*
X469169Y114221D01*
X468308Y113465D01*
X467399Y112768D01*
X466446Y112131D01*
X465454Y111558D01*
X464426Y111051D01*
X463368Y110613D01*
X462283Y110245D01*
X461176Y109948D01*
X460052Y109725D01*
X458916Y109575D01*
X457773Y109500D01*
X456627Y109500D01*
X455484Y109575D01*
X454348Y109725D01*
X453224Y109948D01*
X452117Y110245D01*
X451032Y110613D01*
X449974Y111051D01*
X448946Y111558D01*
X447954Y112131D01*
X447001Y112768D01*
X446092Y113465D01*
X445231Y114221D01*
X444421Y115031D01*
X443665Y115892D01*
X442968Y116801D01*
X442331Y117754D01*
X441758Y118746D01*
X441251Y119774D01*
X440813Y120832D01*
X440445Y121917D01*
X440148Y123024D01*
X439925Y124148D01*
X439775Y125284D01*
X439700Y126427D01*
X439700Y127573D01*
X439775Y128716D01*
X439925Y129852D01*
X440148Y130976D01*
X440445Y132083D01*
X440813Y133168D01*
X441251Y134226D01*
X441758Y135254D01*
X442331Y136246D01*
X442968Y137199D01*
X443665Y138108D01*
X444421Y138969D01*
X445231Y139779D01*
X446092Y140535D01*
X447001Y141232D01*
X447954Y141869D01*
X448946Y142442D01*
X449974Y142949D01*
X451032Y143387D01*
X452117Y143755D01*
X453224Y144052D01*
X454348Y144276D01*
X455484Y144425D01*
X456627Y144500D01*
X457773Y144500D01*
X458916Y144425D01*
X460052Y144276D01*
X461176Y144052D01*
X462283Y143755D01*
X463368Y143387D01*
X464426Y142949D01*
X465454Y142442D01*
X466446Y141869D01*
X467399Y141232D01*
X468308Y140535D01*
X469169Y139779D01*
X469979Y138969D01*
X470735Y138108D01*
X471432Y137199D01*
X472069Y136246D01*
X472642Y135254D01*
X473149Y134226D01*
X473587Y133168D01*
X473955Y132083D01*
X474252Y130976D01*
X474476Y129852D01*
X474625Y128716D01*
X474700Y127573D01*
X474700Y126427D01*
X55600Y964627D02*
X55525Y963484D01*
X55376Y962348D01*
X55152Y961224D01*
X54855Y960117D01*
X54487Y959032D01*
X54049Y957974D01*
X53542Y956946D01*
X52969Y955954D01*
X52332Y955001D01*
X51635Y954092D01*
X50879Y953231D01*
X50069Y952421D01*
X49208Y951665D01*
X48299Y950968D01*
X47346Y950331D01*
X46354Y949758D01*
X45326Y949251D01*
X44268Y948813D01*
X43183Y948445D01*
X42076Y948148D01*
X40952Y947925D01*
X39816Y947775D01*
X38673Y947700D01*
X37527Y947700D01*
X36384Y947775D01*
X35248Y947925D01*
X34124Y948148D01*
X33017Y948445D01*
X31932Y948813D01*
X30874Y949251D01*
X29846Y949758D01*
X28854Y950331D01*
X27901Y950968D01*
X26992Y951665D01*
X26131Y952421D01*
X25321Y953231D01*
X24565Y954092D01*
X23868Y955001D01*
X23231Y955954D01*
X22658Y956946D01*
X22151Y957974D01*
X21713Y959032D01*
X21345Y960117D01*
X21048Y961224D01*
X20825Y962348D01*
X20675Y963484D01*
X20600Y964627D01*
X20600Y965773D01*
X20675Y966916D01*
X20825Y968052D01*
X21048Y969176D01*
X21345Y970283D01*
X21713Y971368D01*
X22151Y972426D01*
X22658Y973454D01*
X23231Y974446D01*
X23868Y975399D01*
X24565Y976308D01*
X25321Y977169D01*
X26131Y977979D01*
X26992Y978735D01*
X27901Y979432D01*
X28854Y980069D01*
X29846Y980642D01*
X30874Y981149D01*
X31932Y981587D01*
X33017Y981955D01*
X34124Y982252D01*
X35248Y982476D01*
X36384Y982625D01*
X37527Y982700D01*
X38673Y982700D01*
X39816Y982625D01*
X40952Y982476D01*
X42076Y982252D01*
X43183Y981955D01*
X44268Y981587D01*
X45326Y981149D01*
X46354Y980642D01*
X47346Y980069D01*
X48299Y979432D01*
X49208Y978735D01*
X50069Y977979D01*
X50879Y977169D01*
X51635Y976308D01*
X52332Y975399D01*
X52969Y974446D01*
X53542Y973454D01*
X54049Y972426D01*
X54487Y971368D01*
X54855Y970283D01*
X55152Y969176D01*
X55376Y968052D01*
X55525Y966916D01*
X55600Y965773D01*
X55600Y964627D01*
X474700Y964627D02*
X474625Y963484D01*
X474476Y962348D01*
X474252Y961224D01*
X473955Y960117D01*
X473587Y959032D01*
X473149Y957974D01*
X472642Y956946D01*
X472069Y955954D01*
X471432Y955001D01*
X470735Y954092D01*
X469979Y953231D01*
X469169Y952421D01*
X468308Y951665D01*
X467399Y950968D01*
X466446Y950331D01*
X465454Y949758D01*
X464426Y949251D01*
X463368Y948813D01*
X462283Y948445D01*
X461176Y948148D01*
X460052Y947925D01*
X458916Y947775D01*
X457773Y947700D01*
X456627Y947700D01*
X455484Y947775D01*
X454348Y947925D01*
X453224Y948148D01*
X452117Y948445D01*
X451032Y948813D01*
X449974Y949251D01*
X448946Y949758D01*
X447954Y950331D01*
X447001Y950968D01*
X446092Y951665D01*
X445231Y952421D01*
X444421Y953231D01*
X443665Y954092D01*
X442968Y955001D01*
X442331Y955954D01*
X441758Y956946D01*
X441251Y957974D01*
X440813Y959032D01*
X440445Y960117D01*
X440148Y961224D01*
X439925Y962348D01*
X439775Y963484D01*
X439700Y964627D01*
X439700Y965773D01*
X439775Y966916D01*
X439925Y968052D01*
X440148Y969176D01*
X440445Y970283D01*
X440813Y971368D01*
X441251Y972426D01*
X441758Y973454D01*
X442331Y974446D01*
X442968Y975399D01*
X443665Y976308D01*
X444421Y977169D01*
X445231Y977979D01*
X446092Y978735D01*
X447001Y979432D01*
X447954Y980069D01*
X448946Y980642D01*
X449974Y981149D01*
X451032Y981587D01*
X452117Y981955D01*
X453224Y982252D01*
X454348Y982476D01*
X455484Y982625D01*
X456627Y982700D01*
X457773Y982700D01*
X458916Y982625D01*
X460052Y982476D01*
X461176Y982252D01*
X462283Y981955D01*
X463368Y981587D01*
X464426Y981149D01*
X465454Y980642D01*
X466446Y980069D01*
X467399Y979432D01*
X468308Y978735D01*
X469169Y977979D01*
X469979Y977169D01*
X470735Y976308D01*
X471432Y975399D01*
X472069Y974446D01*
X472642Y973454D01*
X473149Y972426D01*
X473587Y971368D01*
X473955Y970283D01*
X474252Y969176D01*
X474476Y968052D01*
X474625Y966916D01*
X474700Y965773D01*
X474700Y964627D01*
M02*
