G04 EAGLE Gerber RS-274X export*
G75*
%MOMM*%
%FSLAX34Y34*%
%LPD*%
%INSoldermask Top*%
%IPPOS*%
%AMOC8*
5,1,8,0,0,1.08239X$1,22.5*%
G01*
%ADD10C,3.703200*%
%ADD11R,1.727200X0.965200*%
%ADD12R,1.103200X1.688200*%
%ADD13R,4.203200X4.203200*%
%ADD14R,1.203200X0.703200*%
%ADD15R,0.983200X0.923200*%
%ADD16R,1.283200X1.253200*%
%ADD17R,1.403200X1.253200*%
%ADD18R,2.593200X1.253200*%
%ADD19R,0.753200X3.113200*%
%ADD20R,0.762000X1.473200*%
%ADD21R,1.473200X0.762000*%
%ADD22C,1.854200*%
%ADD23R,1.203200X1.303200*%
%ADD24R,1.803200X2.003200*%
%ADD25R,2.003200X1.803200*%
%ADD26R,1.703200X1.503200*%
%ADD27R,1.203200X2.203200*%
%ADD28R,1.603200X1.403200*%
%ADD29C,2.082800*%
%ADD30R,1.103200X1.003200*%
%ADD31R,1.303200X1.203200*%
%ADD32R,1.053200X4.553200*%
%ADD33R,10.353200X9.103200*%
%ADD34R,2.235200X2.235200*%
%ADD35C,2.235200*%
%ADD36R,10.613200X11.003200*%
%ADD37R,2.362200X1.270000*%
%ADD38C,2.743200*%
%ADD39P,2.969212X8X247.500000*%
%ADD40R,2.603200X2.603200*%
%ADD41R,4.203200X5.703200*%
%ADD42R,1.203200X3.003200*%
%ADD43R,1.422400X2.438400*%
%ADD44R,3.803200X2.403200*%
%ADD45R,1.003200X1.403200*%
%ADD46R,2.082800X2.082800*%
%ADD47R,1.703200X1.703200*%
%ADD48C,1.703200*%
%ADD49C,1.803200*%


D10*
X38100Y127000D03*
X457200Y127000D03*
X38100Y965200D03*
X457200Y965200D03*
D11*
X289560Y69850D03*
X345440Y69850D03*
X289560Y31750D03*
X345440Y31750D03*
X35560Y69850D03*
X91440Y69850D03*
X35560Y31750D03*
X91440Y31750D03*
X162560Y69850D03*
X218440Y69850D03*
X162560Y31750D03*
X218440Y31750D03*
X414020Y69850D03*
X469900Y69850D03*
X414020Y31750D03*
X469900Y31750D03*
D12*
X78000Y203175D03*
X93000Y203175D03*
X108000Y203175D03*
X123000Y203175D03*
X138000Y203175D03*
X153000Y203175D03*
X168000Y203175D03*
X183000Y203175D03*
X198000Y203175D03*
X198000Y381025D03*
X183000Y381025D03*
X168000Y381025D03*
X153000Y381025D03*
X138000Y381025D03*
X123000Y381025D03*
X108000Y381025D03*
X93000Y381025D03*
X78000Y381025D03*
D13*
X142000Y302100D03*
D14*
X80400Y454100D03*
X80400Y465100D03*
X80400Y476100D03*
X80400Y487100D03*
X80400Y498100D03*
X80400Y509100D03*
X80400Y520100D03*
X80400Y531100D03*
D15*
X107200Y436100D03*
D16*
X119900Y436100D03*
D17*
X146000Y436100D03*
X140300Y542850D03*
D18*
X108450Y542850D03*
D19*
X152750Y511050D03*
X152750Y469150D03*
D20*
X320100Y284226D03*
X312100Y284226D03*
X304100Y284226D03*
X296100Y284226D03*
X288100Y284226D03*
X280100Y284226D03*
X272100Y284226D03*
X264100Y284226D03*
D21*
X249174Y269300D03*
X249174Y261300D03*
X249174Y253300D03*
X249174Y245300D03*
X249174Y237300D03*
X249174Y229300D03*
X249174Y221300D03*
X249174Y213300D03*
D20*
X264100Y198374D03*
X272100Y198374D03*
X280100Y198374D03*
X288100Y198374D03*
X296100Y198374D03*
X304100Y198374D03*
X312100Y198374D03*
X320100Y198374D03*
D21*
X335026Y213300D03*
X335026Y221300D03*
X335026Y229300D03*
X335026Y237300D03*
X335026Y245300D03*
X335026Y253300D03*
X335026Y261300D03*
X335026Y269300D03*
D22*
X381000Y355600D03*
X381000Y304800D03*
D23*
X342900Y326000D03*
X342900Y309000D03*
X342900Y347100D03*
X342900Y364100D03*
D24*
X400080Y254000D03*
X372080Y254000D03*
D25*
X292100Y138400D03*
X292100Y166400D03*
D26*
X342900Y142900D03*
X342900Y161900D03*
X317500Y142900D03*
X317500Y161900D03*
X368300Y142900D03*
X368300Y161900D03*
D27*
X266700Y328650D03*
X266700Y357150D03*
D11*
X416560Y438150D03*
X472440Y438150D03*
X416560Y400050D03*
X472440Y400050D03*
D25*
X381000Y64800D03*
X381000Y36800D03*
X254000Y64800D03*
X254000Y36800D03*
X127000Y64800D03*
X127000Y36800D03*
D24*
X114270Y100330D03*
X142270Y100330D03*
X204500Y101600D03*
X176500Y101600D03*
D11*
X472440Y463550D03*
X416560Y463550D03*
X472440Y501650D03*
X416560Y501650D03*
X416560Y323850D03*
X472440Y323850D03*
X416560Y285750D03*
X472440Y285750D03*
D24*
X429230Y355600D03*
X457230Y355600D03*
D25*
X165100Y138400D03*
X165100Y166400D03*
D28*
X88900Y167400D03*
X88900Y137400D03*
D25*
X114300Y166400D03*
X114300Y138400D03*
D24*
X49500Y406400D03*
X77500Y406400D03*
D25*
X228600Y356900D03*
X228600Y328900D03*
D29*
X457200Y203200D03*
X431800Y203200D03*
X457200Y228600D03*
X431800Y228600D03*
X457200Y254000D03*
X431800Y254000D03*
D30*
X256700Y415900D03*
X256700Y396900D03*
X277700Y406400D03*
X314800Y396900D03*
X314800Y415900D03*
X293800Y406400D03*
D25*
X228600Y392400D03*
X228600Y420400D03*
X342900Y420400D03*
X342900Y392400D03*
D24*
X303500Y444500D03*
X331500Y444500D03*
X268000Y444500D03*
X240000Y444500D03*
D31*
X131200Y406400D03*
X148200Y406400D03*
D25*
X139700Y138400D03*
X139700Y166400D03*
X241300Y138400D03*
X241300Y166400D03*
D23*
X215900Y143900D03*
X215900Y160900D03*
X190500Y143900D03*
X190500Y160900D03*
D32*
X266700Y740100D03*
X279400Y740100D03*
X292100Y740100D03*
X304800Y740100D03*
X317500Y740100D03*
X330200Y740100D03*
X342900Y740100D03*
D33*
X304800Y837100D03*
D32*
X381000Y740100D03*
X393700Y740100D03*
X406400Y740100D03*
X419100Y740100D03*
X431800Y740100D03*
X444500Y740100D03*
X457200Y740100D03*
D33*
X419100Y837100D03*
D34*
X342900Y952500D03*
D35*
X392900Y952500D03*
D24*
X331500Y685800D03*
X303500Y685800D03*
D25*
X444500Y687100D03*
X444500Y659100D03*
D36*
X63500Y850900D03*
D37*
X146812Y816864D03*
X146812Y833882D03*
X146812Y850900D03*
X146812Y867918D03*
X146812Y884936D03*
D38*
X268368Y966868D03*
D39*
X232447Y930947D03*
D40*
X164690Y748030D03*
X208690Y748030D03*
D41*
X143900Y685800D03*
X33900Y685800D03*
D42*
X208280Y871860D03*
X208280Y824860D03*
D43*
X192786Y489712D03*
X215900Y489712D03*
X239014Y489712D03*
D44*
X215900Y551690D03*
D45*
X199500Y458470D03*
X181500Y458470D03*
D34*
X114300Y952500D03*
D35*
X164300Y952500D03*
D46*
X342900Y508000D03*
D29*
X317500Y508000D03*
X292100Y508000D03*
D47*
X182200Y660400D03*
D48*
X182200Y635000D03*
X182200Y609600D03*
X182200Y584200D03*
D49*
X279400Y570350D02*
X279400Y563850D01*
X304800Y563850D02*
X304800Y570350D01*
X304800Y648850D02*
X304800Y655350D01*
X279400Y655350D02*
X279400Y648850D01*
X355600Y570350D02*
X355600Y563850D01*
X381000Y563850D02*
X381000Y570350D01*
X381000Y648850D02*
X381000Y655350D01*
X355600Y655350D02*
X355600Y648850D01*
D25*
X419100Y659100D03*
X419100Y687100D03*
D24*
X252700Y685800D03*
X280700Y685800D03*
X382300Y685800D03*
X354300Y685800D03*
D25*
X469900Y659100D03*
X469900Y687100D03*
D28*
X266700Y137400D03*
X266700Y167400D03*
M02*
