M48
;GenerationSoftware,Autodesk,EAGLE,9.6.2*%
;CreationDate,2020-08-16T08:06:08Z*%
FMAT,2
ICI,OFF
METRIC,TZ,000.000
T6C0.350
T5C0.700
T4C1.000
T3C1.016
T2C1.300
T1C3.500
%
G90
M71
T1
X3810Y12700
X45720Y12700
X3810Y96520
X45720Y96520
T2
X34290Y95250
X39290Y95250
X11430Y95250
X16430Y95250
T3
X43180Y25400
X45720Y20320
X43180Y20320
X45720Y22860
X43180Y22860
X45720Y25400
X26837Y96687
X23245Y93095
X34290Y50800
X31750Y50800
X29210Y50800
T4
X18220Y58420
X18220Y66040
X18220Y63500
X18220Y60960
T5
X38100Y35560
X38100Y30480
T6
X29210Y15240
X26289Y22225
X26476Y21316
X29210Y5842
X35052Y5842
X22860Y46355
X33401Y46355
X36703Y46355
X39878Y46355
X41529Y27432
X22098Y25400
X4953Y25908
X4953Y20574
X19431Y44450
X20955Y42926
X21082Y35306
X26670Y41910
X31496Y38354
X21590Y50673
X19304Y50927
X2540Y48006
X2540Y50800
X6096Y47625
X3683Y47498
X16764Y41021
X17526Y52324
X23622Y52324
X25781Y52324
X18288Y40894
X25781Y53467
X8128Y42672
X19939Y40640
X35560Y27940
X36449Y40640
X32639Y40640
X29337Y39497
X41148Y64135
X44577Y64135
X47117Y64135
X33147Y66040
X33147Y64262
X36068Y75438
X36068Y72390
X23495Y88265
X23495Y84074
X12446Y77216
X2667Y77470
X38608Y67056
X34290Y76962
X45720Y77089
X46990Y71247
X46990Y72771
X46990Y74041
X46990Y75311
X46990Y76708
X16764Y81661
X25400Y31496
X27940Y54610
X44577Y33528
X35560Y54610
X30988Y23749
X21590Y28194
X33020Y29464
X27178Y12192
X33528Y12319
X24384Y19304
X46101Y27686
X32893Y33782
X29718Y33909
X15367Y39497
X15240Y44831
X28448Y23749
X8128Y43942
X11430Y12192
X14097Y12065
X25400Y8001
X25400Y10033
X42672Y14351
X39878Y14224
X24638Y42672
X25019Y36068
X37338Y23749
X47244Y26924
X47244Y38608
X24130Y30480
M30